<?xml version="1.0" encoding="UTF-8" standalone="no"?>
<!DOCTYPE svg PUBLIC "-//W3C//DTD SVG 1.1//EN"
 "http://www.w3.org/Graphics/SVG/1.1/DTD/svg11.dtd">
<!-- Generated by graphviz version 2.36.0 (20140111.2315)
 -->
<!-- Title: database&#45;schema Pages: 1 -->
<svg width="531pt" height="1240pt"
 viewBox="0.00 0.00 531.00 1240.00" xmlns="http://www.w3.org/2000/svg" xmlns:xlink="http://www.w3.org/1999/xlink">
<g id="graph0" class="graph" transform="scale(1 1) rotate(0) translate(4 1236)">
<title>database&#45;schema</title>
<polygon fill="white" stroke="none" points="-4,4 -4,-1236 527,-1236 527,4 -4,4"/>
<!-- database schema -->
<g id="node1" class="node"><title>database schema</title>
<polygon fill="none" stroke="black" points="291.5,-1232 180.5,-1232 180.5,-1196 291.5,-1196 291.5,-1232"/>
<text text-anchor="middle" x="236" y="-1210.3" font-family="Times New Roman,serif" font-size="14.00">database schema</text>
</g>
<!-- table1 -->
<g id="node2" class="node"><title>table1</title>
<polygon fill="none" stroke="black" points="188.5,-1053.5 188.5,-1122.5 283.5,-1122.5 283.5,-1053.5 188.5,-1053.5"/>
<text text-anchor="middle" x="236" y="-1107.3" font-family="Times New Roman,serif" font-size="14.00" fill="blue">table1</text>
<polyline fill="none" stroke="black" points="188.5,-1099.5 283.5,-1099.5 "/>
<text text-anchor="middle" x="236" y="-1084.3" font-family="Times New Roman,serif" font-size="14.00" fill="blue">name=varchar</text>
<polyline fill="none" stroke="black" points="188.5,-1076.5 283.5,-1076.5 "/>
<text text-anchor="middle" x="236" y="-1061.3" font-family="Times New Roman,serif" font-size="14.00" fill="blue">index=integer</text>
</g>
<!-- table1&#45;&gt;database schema -->
<!-- table2 -->
<g id="node3" class="node"><title>table2</title>
<polygon fill="none" stroke="black" points="173.5,-459 173.5,-965 298.5,-965 298.5,-459 173.5,-459"/>
<text text-anchor="middle" x="236" y="-949.8" font-family="Times New Roman,serif" font-size="14.00" fill="blue">table2</text>
<polyline fill="none" stroke="black" points="173.5,-942 298.5,-942 "/>
<text text-anchor="middle" x="236" y="-926.8" font-family="Times New Roman,serif" font-size="14.00" fill="blue">name=varchar</text>
<polyline fill="none" stroke="black" points="173.5,-919 298.5,-919 "/>
<text text-anchor="middle" x="236" y="-903.8" font-family="Times New Roman,serif" font-size="14.00" fill="blue">grid_name=varchar</text>
<polyline fill="none" stroke="black" points="173.5,-896 298.5,-896 "/>
<text text-anchor="middle" x="236" y="-880.8" font-family="Times New Roman,serif" font-size="14.00" fill="blue">first_index=int</text>
<polyline fill="none" stroke="black" points="173.5,-873 298.5,-873 "/>
<text text-anchor="middle" x="236" y="-857.8" font-family="Times New Roman,serif" font-size="14.00" fill="blue">index=int</text>
<polyline fill="none" stroke="black" points="173.5,-850 298.5,-850 "/>
<text text-anchor="middle" x="236" y="-834.8" font-family="Times New Roman,serif" font-size="14.00" fill="blue">num_col=int</text>
<polyline fill="none" stroke="black" points="173.5,-827 298.5,-827 "/>
<text text-anchor="middle" x="236" y="-811.8" font-family="Times New Roman,serif" font-size="14.00" fill="blue">vol_col=int</text>
<polyline fill="none" stroke="black" points="173.5,-804 298.5,-804 "/>
<text text-anchor="middle" x="236" y="-788.8" font-family="Times New Roman,serif" font-size="14.00" fill="blue">perc_col=int</text>
<polyline fill="none" stroke="black" points="173.5,-781 298.5,-781 "/>
<text text-anchor="middle" x="236" y="-765.8" font-family="Times New Roman,serif" font-size="14.00" fill="blue">col1=int</text>
<polyline fill="none" stroke="black" points="173.5,-758 298.5,-758 "/>
<text text-anchor="middle" x="236" y="-742.8" font-family="Times New Roman,serif" font-size="14.00" fill="blue">col2=int</text>
<polyline fill="none" stroke="black" points="173.5,-735 298.5,-735 "/>
<text text-anchor="middle" x="236" y="-719.8" font-family="Times New Roman,serif" font-size="14.00" fill="blue">col3=int</text>
<polyline fill="none" stroke="black" points="173.5,-712 298.5,-712 "/>
<text text-anchor="middle" x="236" y="-696.8" font-family="Times New Roman,serif" font-size="14.00" fill="blue">col4=int</text>
<polyline fill="none" stroke="black" points="173.5,-689 298.5,-689 "/>
<text text-anchor="middle" x="236" y="-673.8" font-family="Times New Roman,serif" font-size="14.00" fill="blue">col5=int</text>
<polyline fill="none" stroke="black" points="173.5,-666 298.5,-666 "/>
<text text-anchor="middle" x="236" y="-650.8" font-family="Times New Roman,serif" font-size="14.00" fill="blue">col6=int</text>
<polyline fill="none" stroke="black" points="173.5,-643 298.5,-643 "/>
<text text-anchor="middle" x="236" y="-627.8" font-family="Times New Roman,serif" font-size="14.00" fill="blue">col7=int</text>
<polyline fill="none" stroke="black" points="173.5,-620 298.5,-620 "/>
<text text-anchor="middle" x="236" y="-604.8" font-family="Times New Roman,serif" font-size="14.00" fill="blue">col8=int</text>
<polyline fill="none" stroke="black" points="173.5,-597 298.5,-597 "/>
<text text-anchor="middle" x="236" y="-581.8" font-family="Times New Roman,serif" font-size="14.00" fill="blue">col9=int</text>
<polyline fill="none" stroke="black" points="173.5,-574 298.5,-574 "/>
<text text-anchor="middle" x="236" y="-558.8" font-family="Times New Roman,serif" font-size="14.00" fill="blue">col10=int</text>
<polyline fill="none" stroke="black" points="173.5,-551 298.5,-551 "/>
<text text-anchor="middle" x="236" y="-535.8" font-family="Times New Roman,serif" font-size="14.00" fill="blue">col11=int</text>
<polyline fill="none" stroke="black" points="173.5,-528 298.5,-528 "/>
<text text-anchor="middle" x="236" y="-512.8" font-family="Times New Roman,serif" font-size="14.00" fill="blue">col12=int</text>
<polyline fill="none" stroke="black" points="173.5,-505 298.5,-505 "/>
<text text-anchor="middle" x="236" y="-489.8" font-family="Times New Roman,serif" font-size="14.00" fill="blue">version=int</text>
<polyline fill="none" stroke="black" points="173.5,-482 298.5,-482 "/>
<text text-anchor="middle" x="236" y="-466.8" font-family="Times New Roman,serif" font-size="14.00" fill="blue">active=int</text>
</g>
<!-- table2&#45;&gt;table1 -->
<g id="edge4" class="edge"><title>table2&#45;&gt;table1</title>
<path fill="none" stroke="black" stroke-dasharray="5,2" d="M236,-965.056C236,-994.793 236,-1022.02 236,-1043.17"/>
<polygon fill="black" stroke="black" points="232.5,-1043.35 236,-1053.35 239.5,-1043.35 232.5,-1043.35"/>
<text text-anchor="middle" x="290.5" y="-988.3" font-family="Times New Roman,serif" font-size="14.00">first_index&#45;&gt;&#39;index&#39;</text>
</g>
<!-- changelog -->
<g id="node7" class="node"><title>changelog</title>
<polygon fill="none" stroke="black" points="22,-1019 22,-1157 134,-1157 134,-1019 22,-1019"/>
<text text-anchor="middle" x="78" y="-1141.8" font-family="Times New Roman,serif" font-size="14.00" fill="blue">changelog</text>
<polyline fill="none" stroke="black" points="22,-1134 134,-1134 "/>
<text text-anchor="middle" x="78" y="-1118.8" font-family="Times New Roman,serif" font-size="14.00" fill="blue">date=datetime</text>
<polyline fill="none" stroke="black" points="22,-1111 134,-1111 "/>
<text text-anchor="middle" x="78" y="-1095.8" font-family="Times New Roman,serif" font-size="14.00" fill="blue">name=char(49)</text>
<polyline fill="none" stroke="black" points="22,-1088 134,-1088 "/>
<text text-anchor="middle" x="78" y="-1072.8" font-family="Times New Roman,serif" font-size="14.00" fill="blue">uuid=int</text>
<polyline fill="none" stroke="black" points="22,-1065 134,-1065 "/>
<text text-anchor="middle" x="78" y="-1049.8" font-family="Times New Roman,serif" font-size="14.00" fill="blue">action=char(199)</text>
<polyline fill="none" stroke="black" points="22,-1042 134,-1042 "/>
<text text-anchor="middle" x="78" y="-1026.8" font-family="Times New Roman,serif" font-size="14.00" fill="blue">version=int</text>
</g>
<!-- table2&#45;&gt;changelog -->
<g id="edge5" class="edge"><title>table2&#45;&gt;changelog</title>
<path fill="none" stroke="black" stroke-dasharray="5,2" d="M173.473,-941.39C168.967,-949.881 164.149,-958.121 159,-966 152.276,-976.29 145.87,-974.557 138,-984 131.203,-992.155 124.721,-1001.18 118.701,-1010.39"/>
<polygon fill="black" stroke="black" points="115.711,-1008.57 113.306,-1018.89 121.621,-1012.32 115.711,-1008.57"/>
<text text-anchor="middle" x="185" y="-988.3" font-family="Times New Roman,serif" font-size="14.00">version&#45;&gt;version</text>
</g>
<!-- table3 -->
<g id="node4" class="node"><title>table3</title>
<polygon fill="none" stroke="black" points="0,-0.5 0,-391.5 116,-391.5 116,-0.5 0,-0.5"/>
<text text-anchor="middle" x="58" y="-376.3" font-family="Times New Roman,serif" font-size="14.00" fill="blue">table3</text>
<polyline fill="none" stroke="black" points="0,-368.5 116,-368.5 "/>
<text text-anchor="middle" x="58" y="-353.3" font-family="Times New Roman,serif" font-size="14.00" fill="blue">first_index=int</text>
<polyline fill="none" stroke="black" points="0,-345.5 116,-345.5 "/>
<text text-anchor="middle" x="58" y="-330.3" font-family="Times New Roman,serif" font-size="14.00" fill="blue">second_index=int</text>
<polyline fill="none" stroke="black" points="0,-322.5 116,-322.5 "/>
<text text-anchor="middle" x="58" y="-307.3" font-family="Times New Roman,serif" font-size="14.00" fill="blue">date=datetime</text>
<polyline fill="none" stroke="black" points="0,-299.5 116,-299.5 "/>
<text text-anchor="middle" x="58" y="-284.3" font-family="Times New Roman,serif" font-size="14.00" fill="blue">remarks=varchar</text>
<polyline fill="none" stroke="black" points="0,-276.5 116,-276.5 "/>
<text text-anchor="middle" x="58" y="-261.3" font-family="Times New Roman,serif" font-size="14.00" fill="blue">col1=int</text>
<polyline fill="none" stroke="black" points="0,-253.5 116,-253.5 "/>
<text text-anchor="middle" x="58" y="-238.3" font-family="Times New Roman,serif" font-size="14.00" fill="blue">col2=int</text>
<polyline fill="none" stroke="black" points="0,-230.5 116,-230.5 "/>
<text text-anchor="middle" x="58" y="-215.3" font-family="Times New Roman,serif" font-size="14.00" fill="blue">col3=int</text>
<polyline fill="none" stroke="black" points="0,-207.5 116,-207.5 "/>
<text text-anchor="middle" x="58" y="-192.3" font-family="Times New Roman,serif" font-size="14.00" fill="blue">col4=int</text>
<polyline fill="none" stroke="black" points="0,-184.5 116,-184.5 "/>
<text text-anchor="middle" x="58" y="-169.3" font-family="Times New Roman,serif" font-size="14.00" fill="blue">col5=int</text>
<polyline fill="none" stroke="black" points="0,-161.5 116,-161.5 "/>
<text text-anchor="middle" x="58" y="-146.3" font-family="Times New Roman,serif" font-size="14.00" fill="blue">col6=int</text>
<polyline fill="none" stroke="black" points="0,-138.5 116,-138.5 "/>
<text text-anchor="middle" x="58" y="-123.3" font-family="Times New Roman,serif" font-size="14.00" fill="blue">col7=int</text>
<polyline fill="none" stroke="black" points="0,-115.5 116,-115.5 "/>
<text text-anchor="middle" x="58" y="-100.3" font-family="Times New Roman,serif" font-size="14.00" fill="blue">col8=int</text>
<polyline fill="none" stroke="black" points="0,-92.5 116,-92.5 "/>
<text text-anchor="middle" x="58" y="-77.3" font-family="Times New Roman,serif" font-size="14.00" fill="blue">col9=int</text>
<polyline fill="none" stroke="black" points="0,-69.5 116,-69.5 "/>
<text text-anchor="middle" x="58" y="-54.3" font-family="Times New Roman,serif" font-size="14.00" fill="blue">col10=int</text>
<polyline fill="none" stroke="black" points="0,-46.5 116,-46.5 "/>
<text text-anchor="middle" x="58" y="-31.3" font-family="Times New Roman,serif" font-size="14.00" fill="blue">version=int</text>
<polyline fill="none" stroke="black" points="0,-23.5 116,-23.5 "/>
<text text-anchor="middle" x="58" y="-8.3" font-family="Times New Roman,serif" font-size="14.00" fill="blue">active=int</text>
</g>
<!-- table3&#45;&gt;table2 -->
<g id="edge3" class="edge"><title>table3&#45;&gt;table2</title>
<path fill="none" stroke="black" stroke-dasharray="5,2" d="M65.4918,-391.707C72.2483,-409.348 81.5016,-425.86 94,-440 113.853,-462.46 137.537,-437.073 159,-458 161.707,-460.639 164.319,-463.371 166.841,-466.185"/>
<polygon fill="black" stroke="black" points="164.173,-468.451 173.304,-473.824 169.517,-463.929 164.173,-468.451"/>
<text text-anchor="middle" x="163.5" y="-428.8" font-family="Times New Roman,serif" font-size="14.00">first_index &#45;&gt; first_index</text>
<text text-anchor="middle" x="163.5" y="-413.8" font-family="Times New Roman,serif" font-size="14.00">second_index &#45;&gt; &#39;index&#39;</text>
</g>
<!-- table3&#45;&gt;changelog -->
<g id="edge6" class="edge"><title>table3&#45;&gt;changelog</title>
<path fill="none" stroke="black" stroke-dasharray="5,2" d="M43.5143,-391.613C34.9708,-547.461 29.5539,-771.416 51,-966 52.5369,-979.945 55.0415,-994.632 57.9213,-1008.78"/>
<polygon fill="black" stroke="black" points="54.5826,-1009.91 60.0762,-1018.97 61.4312,-1008.46 54.5826,-1009.91"/>
<text text-anchor="middle" x="107.5" y="-708.3" font-family="Times New Roman,serif" font-size="14.00">version&#45;&gt;version ?!!</text>
</g>
<!-- table4 -->
<g id="node5" class="node"><title>table4</title>
<polygon fill="none" stroke="black" points="179,-23.5 179,-368.5 295,-368.5 295,-23.5 179,-23.5"/>
<text text-anchor="middle" x="237" y="-353.3" font-family="Times New Roman,serif" font-size="14.00" fill="blue">table4</text>
<polyline fill="none" stroke="black" points="179,-345.5 295,-345.5 "/>
<text text-anchor="middle" x="237" y="-330.3" font-family="Times New Roman,serif" font-size="14.00" fill="blue">first_index=int</text>
<polyline fill="none" stroke="black" points="179,-322.5 295,-322.5 "/>
<text text-anchor="middle" x="237" y="-307.3" font-family="Times New Roman,serif" font-size="14.00" fill="blue">second_index=int</text>
<polyline fill="none" stroke="black" points="179,-299.5 295,-299.5 "/>
<text text-anchor="middle" x="237" y="-284.3" font-family="Times New Roman,serif" font-size="14.00" fill="blue">col1=int</text>
<polyline fill="none" stroke="black" points="179,-276.5 295,-276.5 "/>
<text text-anchor="middle" x="237" y="-261.3" font-family="Times New Roman,serif" font-size="14.00" fill="blue">col2=int</text>
<polyline fill="none" stroke="black" points="179,-253.5 295,-253.5 "/>
<text text-anchor="middle" x="237" y="-238.3" font-family="Times New Roman,serif" font-size="14.00" fill="blue">col3=int</text>
<polyline fill="none" stroke="black" points="179,-230.5 295,-230.5 "/>
<text text-anchor="middle" x="237" y="-215.3" font-family="Times New Roman,serif" font-size="14.00" fill="blue">col4=int</text>
<polyline fill="none" stroke="black" points="179,-207.5 295,-207.5 "/>
<text text-anchor="middle" x="237" y="-192.3" font-family="Times New Roman,serif" font-size="14.00" fill="blue">col5=int</text>
<polyline fill="none" stroke="black" points="179,-184.5 295,-184.5 "/>
<text text-anchor="middle" x="237" y="-169.3" font-family="Times New Roman,serif" font-size="14.00" fill="blue">col6=int</text>
<polyline fill="none" stroke="black" points="179,-161.5 295,-161.5 "/>
<text text-anchor="middle" x="237" y="-146.3" font-family="Times New Roman,serif" font-size="14.00" fill="blue">col7=int</text>
<polyline fill="none" stroke="black" points="179,-138.5 295,-138.5 "/>
<text text-anchor="middle" x="237" y="-123.3" font-family="Times New Roman,serif" font-size="14.00" fill="blue">col8=int</text>
<polyline fill="none" stroke="black" points="179,-115.5 295,-115.5 "/>
<text text-anchor="middle" x="237" y="-100.3" font-family="Times New Roman,serif" font-size="14.00" fill="blue">col9=int</text>
<polyline fill="none" stroke="black" points="179,-92.5 295,-92.5 "/>
<text text-anchor="middle" x="237" y="-77.3" font-family="Times New Roman,serif" font-size="14.00" fill="blue">col10=int</text>
<polyline fill="none" stroke="black" points="179,-69.5 295,-69.5 "/>
<text text-anchor="middle" x="237" y="-54.3" font-family="Times New Roman,serif" font-size="14.00" fill="blue">col11=int</text>
<polyline fill="none" stroke="black" points="179,-46.5 295,-46.5 "/>
<text text-anchor="middle" x="237" y="-31.3" font-family="Times New Roman,serif" font-size="14.00" fill="blue">col12=int</text>
</g>
<!-- table4&#45;&gt;table2 -->
<g id="edge1" class="edge"><title>table4&#45;&gt;table2</title>
<path fill="none" stroke="black" stroke-dasharray="5,2" d="M236.666,-368.512C236.616,-394.383 236.563,-421.558 236.51,-448.811"/>
<polygon fill="black" stroke="black" points="233.01,-448.846 236.491,-458.853 240.01,-448.86 233.01,-448.846"/>
<text text-anchor="middle" x="306.5" y="-428.8" font-family="Times New Roman,serif" font-size="14.00">first_index &#45;&gt; first_index</text>
<text text-anchor="middle" x="306.5" y="-413.8" font-family="Times New Roman,serif" font-size="14.00">second_index &#45;&gt; &#39;index&#39;</text>
</g>
<!-- table5 -->
<g id="node6" class="node"><title>table5</title>
<polygon fill="none" stroke="black" points="341,-23.5 341,-368.5 457,-368.5 457,-23.5 341,-23.5"/>
<text text-anchor="middle" x="399" y="-353.3" font-family="Times New Roman,serif" font-size="14.00" fill="blue">table5</text>
<polyline fill="none" stroke="black" points="341,-345.5 457,-345.5 "/>
<text text-anchor="middle" x="399" y="-330.3" font-family="Times New Roman,serif" font-size="14.00" fill="blue">first_index=int</text>
<polyline fill="none" stroke="black" points="341,-322.5 457,-322.5 "/>
<text text-anchor="middle" x="399" y="-307.3" font-family="Times New Roman,serif" font-size="14.00" fill="blue">second_index=int</text>
<polyline fill="none" stroke="black" points="341,-299.5 457,-299.5 "/>
<text text-anchor="middle" x="399" y="-284.3" font-family="Times New Roman,serif" font-size="14.00" fill="blue">col1=int</text>
<polyline fill="none" stroke="black" points="341,-276.5 457,-276.5 "/>
<text text-anchor="middle" x="399" y="-261.3" font-family="Times New Roman,serif" font-size="14.00" fill="blue">col2=int</text>
<polyline fill="none" stroke="black" points="341,-253.5 457,-253.5 "/>
<text text-anchor="middle" x="399" y="-238.3" font-family="Times New Roman,serif" font-size="14.00" fill="blue">col3=int</text>
<polyline fill="none" stroke="black" points="341,-230.5 457,-230.5 "/>
<text text-anchor="middle" x="399" y="-215.3" font-family="Times New Roman,serif" font-size="14.00" fill="blue">col4=int</text>
<polyline fill="none" stroke="black" points="341,-207.5 457,-207.5 "/>
<text text-anchor="middle" x="399" y="-192.3" font-family="Times New Roman,serif" font-size="14.00" fill="blue">col5=int</text>
<polyline fill="none" stroke="black" points="341,-184.5 457,-184.5 "/>
<text text-anchor="middle" x="399" y="-169.3" font-family="Times New Roman,serif" font-size="14.00" fill="blue">col6=int</text>
<polyline fill="none" stroke="black" points="341,-161.5 457,-161.5 "/>
<text text-anchor="middle" x="399" y="-146.3" font-family="Times New Roman,serif" font-size="14.00" fill="blue">col7=int</text>
<polyline fill="none" stroke="black" points="341,-138.5 457,-138.5 "/>
<text text-anchor="middle" x="399" y="-123.3" font-family="Times New Roman,serif" font-size="14.00" fill="blue">col8=int</text>
<polyline fill="none" stroke="black" points="341,-115.5 457,-115.5 "/>
<text text-anchor="middle" x="399" y="-100.3" font-family="Times New Roman,serif" font-size="14.00" fill="blue">col9=int</text>
<polyline fill="none" stroke="black" points="341,-92.5 457,-92.5 "/>
<text text-anchor="middle" x="399" y="-77.3" font-family="Times New Roman,serif" font-size="14.00" fill="blue">col10=int</text>
<polyline fill="none" stroke="black" points="341,-69.5 457,-69.5 "/>
<text text-anchor="middle" x="399" y="-54.3" font-family="Times New Roman,serif" font-size="14.00" fill="blue">col11=int</text>
<polyline fill="none" stroke="black" points="341,-46.5 457,-46.5 "/>
<text text-anchor="middle" x="399" y="-31.3" font-family="Times New Roman,serif" font-size="14.00" fill="blue">col12=int</text>
</g>
<!-- table5&#45;&gt;table2 -->
<g id="edge2" class="edge"><title>table5&#45;&gt;table2</title>
<path fill="none" stroke="black" stroke-dasharray="5,2" d="M391.911,-368.52C388.475,-392.802 383.67,-417.235 377,-440 360.294,-497.018 331.208,-556.029 303.776,-604.37"/>
<polygon fill="black" stroke="black" points="300.612,-602.853 298.676,-613.27 306.685,-606.333 300.612,-602.853"/>
<text text-anchor="middle" x="453.5" y="-428.8" font-family="Times New Roman,serif" font-size="14.00">first_index &#45;&gt; first_index</text>
<text text-anchor="middle" x="453.5" y="-413.8" font-family="Times New Roman,serif" font-size="14.00">second_index &#45;&gt; &#39;index&#39;</text>
</g>
</g>
</svg>
