<?xml version="1.0" encoding="UTF-8" standalone="no"?>
<!DOCTYPE svg PUBLIC "-//W3C//DTD SVG 1.1//EN"
 "http://www.w3.org/Graphics/SVG/1.1/DTD/svg11.dtd">
<!-- Generated by graphviz version 2.36.0 (20140111.2315)
 -->
<!-- Title: database&#45;schema Pages: 1 -->
<svg width="751pt" height="1166pt"
 viewBox="0.00 0.00 751.00 1166.00" xmlns="http://www.w3.org/2000/svg" xmlns:xlink="http://www.w3.org/1999/xlink">
<g id="graph0" class="graph" transform="scale(1 1) rotate(0) translate(4 1162)">
<title>database&#45;schema</title>
<polygon fill="white" stroke="none" points="-4,4 -4,-1162 747,-1162 747,4 -4,4"/>
<!-- table1 -->
<g id="node1" class="node"><title>table1</title>
<polygon fill="none" stroke="black" points="289.5,-735.5 289.5,-804.5 384.5,-804.5 384.5,-735.5 289.5,-735.5"/>
<text text-anchor="middle" x="337" y="-789.3" font-family="Times New Roman,serif" font-size="14.00" fill="blue">table1</text>
<polyline fill="none" stroke="black" points="289.5,-781.5 384.5,-781.5 "/>
<text text-anchor="middle" x="337" y="-766.3" font-family="Times New Roman,serif" font-size="14.00" fill="blue">name=varchar</text>
<polyline fill="none" stroke="black" points="289.5,-758.5 384.5,-758.5 "/>
<text text-anchor="middle" x="337" y="-743.3" font-family="Times New Roman,serif" font-size="14.00" fill="blue">index=integer</text>
</g>
<!-- table3 -->
<g id="node2" class="node"><title>table3</title>
<polygon fill="none" stroke="black" points="418,-574.5 418,-965.5 534,-965.5 534,-574.5 418,-574.5"/>
<text text-anchor="middle" x="476" y="-950.3" font-family="Times New Roman,serif" font-size="14.00" fill="blue">table3</text>
<polyline fill="none" stroke="black" points="418,-942.5 534,-942.5 "/>
<text text-anchor="middle" x="476" y="-927.3" font-family="Times New Roman,serif" font-size="14.00" fill="blue">first_index=int</text>
<polyline fill="none" stroke="black" points="418,-919.5 534,-919.5 "/>
<text text-anchor="middle" x="476" y="-904.3" font-family="Times New Roman,serif" font-size="14.00" fill="blue">second_index=int</text>
<polyline fill="none" stroke="black" points="418,-896.5 534,-896.5 "/>
<text text-anchor="middle" x="476" y="-881.3" font-family="Times New Roman,serif" font-size="14.00" fill="blue">date=datetime</text>
<polyline fill="none" stroke="black" points="418,-873.5 534,-873.5 "/>
<text text-anchor="middle" x="476" y="-858.3" font-family="Times New Roman,serif" font-size="14.00" fill="blue">remarks=varchar</text>
<polyline fill="none" stroke="black" points="418,-850.5 534,-850.5 "/>
<text text-anchor="middle" x="476" y="-835.3" font-family="Times New Roman,serif" font-size="14.00" fill="blue">col1=int</text>
<polyline fill="none" stroke="black" points="418,-827.5 534,-827.5 "/>
<text text-anchor="middle" x="476" y="-812.3" font-family="Times New Roman,serif" font-size="14.00" fill="blue">col2=int</text>
<polyline fill="none" stroke="black" points="418,-804.5 534,-804.5 "/>
<text text-anchor="middle" x="476" y="-789.3" font-family="Times New Roman,serif" font-size="14.00" fill="blue">col3=int</text>
<polyline fill="none" stroke="black" points="418,-781.5 534,-781.5 "/>
<text text-anchor="middle" x="476" y="-766.3" font-family="Times New Roman,serif" font-size="14.00" fill="blue">col4=int</text>
<polyline fill="none" stroke="black" points="418,-758.5 534,-758.5 "/>
<text text-anchor="middle" x="476" y="-743.3" font-family="Times New Roman,serif" font-size="14.00" fill="blue">col5=int</text>
<polyline fill="none" stroke="black" points="418,-735.5 534,-735.5 "/>
<text text-anchor="middle" x="476" y="-720.3" font-family="Times New Roman,serif" font-size="14.00" fill="blue">col6=int</text>
<polyline fill="none" stroke="black" points="418,-712.5 534,-712.5 "/>
<text text-anchor="middle" x="476" y="-697.3" font-family="Times New Roman,serif" font-size="14.00" fill="blue">col7=int</text>
<polyline fill="none" stroke="black" points="418,-689.5 534,-689.5 "/>
<text text-anchor="middle" x="476" y="-674.3" font-family="Times New Roman,serif" font-size="14.00" fill="blue">col8=int</text>
<polyline fill="none" stroke="black" points="418,-666.5 534,-666.5 "/>
<text text-anchor="middle" x="476" y="-651.3" font-family="Times New Roman,serif" font-size="14.00" fill="blue">col9=int</text>
<polyline fill="none" stroke="black" points="418,-643.5 534,-643.5 "/>
<text text-anchor="middle" x="476" y="-628.3" font-family="Times New Roman,serif" font-size="14.00" fill="blue">col10=int</text>
<polyline fill="none" stroke="black" points="418,-620.5 534,-620.5 "/>
<text text-anchor="middle" x="476" y="-605.3" font-family="Times New Roman,serif" font-size="14.00" fill="blue">version=int</text>
<polyline fill="none" stroke="black" points="418,-597.5 534,-597.5 "/>
<text text-anchor="middle" x="476" y="-582.3" font-family="Times New Roman,serif" font-size="14.00" fill="blue">active=int</text>
</g>
<!-- table2 -->
<g id="node3" class="node"><title>table2</title>
<polygon fill="none" stroke="black" points="406.5,-1 406.5,-507 531.5,-507 531.5,-1 406.5,-1"/>
<text text-anchor="middle" x="469" y="-491.8" font-family="Times New Roman,serif" font-size="14.00" fill="blue">table2</text>
<polyline fill="none" stroke="black" points="406.5,-484 531.5,-484 "/>
<text text-anchor="middle" x="469" y="-468.8" font-family="Times New Roman,serif" font-size="14.00" fill="blue">name=varchar</text>
<polyline fill="none" stroke="black" points="406.5,-461 531.5,-461 "/>
<text text-anchor="middle" x="469" y="-445.8" font-family="Times New Roman,serif" font-size="14.00" fill="blue">grid_name=varchar</text>
<polyline fill="none" stroke="black" points="406.5,-438 531.5,-438 "/>
<text text-anchor="middle" x="469" y="-422.8" font-family="Times New Roman,serif" font-size="14.00" fill="blue">first_index=int</text>
<polyline fill="none" stroke="black" points="406.5,-415 531.5,-415 "/>
<text text-anchor="middle" x="469" y="-399.8" font-family="Times New Roman,serif" font-size="14.00" fill="blue">index=int</text>
<polyline fill="none" stroke="black" points="406.5,-392 531.5,-392 "/>
<text text-anchor="middle" x="469" y="-376.8" font-family="Times New Roman,serif" font-size="14.00" fill="blue">num_col=int</text>
<polyline fill="none" stroke="black" points="406.5,-369 531.5,-369 "/>
<text text-anchor="middle" x="469" y="-353.8" font-family="Times New Roman,serif" font-size="14.00" fill="blue">vol_col=int</text>
<polyline fill="none" stroke="black" points="406.5,-346 531.5,-346 "/>
<text text-anchor="middle" x="469" y="-330.8" font-family="Times New Roman,serif" font-size="14.00" fill="blue">perc_col=int</text>
<polyline fill="none" stroke="black" points="406.5,-323 531.5,-323 "/>
<text text-anchor="middle" x="469" y="-307.8" font-family="Times New Roman,serif" font-size="14.00" fill="blue">col1=int</text>
<polyline fill="none" stroke="black" points="406.5,-300 531.5,-300 "/>
<text text-anchor="middle" x="469" y="-284.8" font-family="Times New Roman,serif" font-size="14.00" fill="blue">col2=int</text>
<polyline fill="none" stroke="black" points="406.5,-277 531.5,-277 "/>
<text text-anchor="middle" x="469" y="-261.8" font-family="Times New Roman,serif" font-size="14.00" fill="blue">col3=int</text>
<polyline fill="none" stroke="black" points="406.5,-254 531.5,-254 "/>
<text text-anchor="middle" x="469" y="-238.8" font-family="Times New Roman,serif" font-size="14.00" fill="blue">col4=int</text>
<polyline fill="none" stroke="black" points="406.5,-231 531.5,-231 "/>
<text text-anchor="middle" x="469" y="-215.8" font-family="Times New Roman,serif" font-size="14.00" fill="blue">col5=int</text>
<polyline fill="none" stroke="black" points="406.5,-208 531.5,-208 "/>
<text text-anchor="middle" x="469" y="-192.8" font-family="Times New Roman,serif" font-size="14.00" fill="blue">col6=int</text>
<polyline fill="none" stroke="black" points="406.5,-185 531.5,-185 "/>
<text text-anchor="middle" x="469" y="-169.8" font-family="Times New Roman,serif" font-size="14.00" fill="blue">col7=int</text>
<polyline fill="none" stroke="black" points="406.5,-162 531.5,-162 "/>
<text text-anchor="middle" x="469" y="-146.8" font-family="Times New Roman,serif" font-size="14.00" fill="blue">col8=int</text>
<polyline fill="none" stroke="black" points="406.5,-139 531.5,-139 "/>
<text text-anchor="middle" x="469" y="-123.8" font-family="Times New Roman,serif" font-size="14.00" fill="blue">col9=int</text>
<polyline fill="none" stroke="black" points="406.5,-116 531.5,-116 "/>
<text text-anchor="middle" x="469" y="-100.8" font-family="Times New Roman,serif" font-size="14.00" fill="blue">col10=int</text>
<polyline fill="none" stroke="black" points="406.5,-93 531.5,-93 "/>
<text text-anchor="middle" x="469" y="-77.8" font-family="Times New Roman,serif" font-size="14.00" fill="blue">col11=int</text>
<polyline fill="none" stroke="black" points="406.5,-70 531.5,-70 "/>
<text text-anchor="middle" x="469" y="-54.8" font-family="Times New Roman,serif" font-size="14.00" fill="blue">col12=int</text>
<polyline fill="none" stroke="black" points="406.5,-47 531.5,-47 "/>
<text text-anchor="middle" x="469" y="-31.8" font-family="Times New Roman,serif" font-size="14.00" fill="blue">version=int</text>
<polyline fill="none" stroke="black" points="406.5,-24 531.5,-24 "/>
<text text-anchor="middle" x="469" y="-8.8" font-family="Times New Roman,serif" font-size="14.00" fill="blue">active=int</text>
</g>
<!-- table3&#45;&gt;table2 -->
<g id="edge3" class="edge"><title>table3&#45;&gt;table2</title>
<path fill="none" stroke="black" stroke-dasharray="5,2" d="M470.318,-574.281C470.201,-568.117 470.095,-562.011 470,-556 469.8,-543.301 469.629,-530.299 469.483,-517.168"/>
<polygon fill="black" stroke="black" points="472.983,-517.067 469.377,-507.104 465.983,-517.141 472.983,-517.067"/>
<text text-anchor="middle" x="539.5" y="-544.8" font-family="Times New Roman,serif" font-size="14.00">first_index &#45;&gt; first_index</text>
<text text-anchor="middle" x="539.5" y="-529.8" font-family="Times New Roman,serif" font-size="14.00">second_index &#45;&gt; &#39;index&#39;</text>
</g>
<!-- table2&#45;&gt;table1 -->
<g id="edge4" class="edge"><title>table2&#45;&gt;table1</title>
<path fill="none" stroke="black" stroke-dasharray="5,2" d="M406.378,-381.767C387.01,-426.34 367.707,-477.436 356,-526 339.555,-594.22 336.443,-676.024 336.291,-725.187"/>
<polygon fill="black" stroke="black" points="332.791,-725.467 336.301,-735.464 339.791,-725.46 332.791,-725.467"/>
<text text-anchor="middle" x="410.5" y="-537.3" font-family="Times New Roman,serif" font-size="14.00">first_index&#45;&gt;&#39;index&#39;</text>
</g>
<!-- table4 -->
<g id="node4" class="node"><title>table4</title>
<polygon fill="none" stroke="black" points="0,-81.5 0,-426.5 116,-426.5 116,-81.5 0,-81.5"/>
<text text-anchor="middle" x="58" y="-411.3" font-family="Times New Roman,serif" font-size="14.00" fill="blue">table4</text>
<polyline fill="none" stroke="black" points="0,-403.5 116,-403.5 "/>
<text text-anchor="middle" x="58" y="-388.3" font-family="Times New Roman,serif" font-size="14.00" fill="blue">first_index=int</text>
<polyline fill="none" stroke="black" points="0,-380.5 116,-380.5 "/>
<text text-anchor="middle" x="58" y="-365.3" font-family="Times New Roman,serif" font-size="14.00" fill="blue">second_index=int</text>
<polyline fill="none" stroke="black" points="0,-357.5 116,-357.5 "/>
<text text-anchor="middle" x="58" y="-342.3" font-family="Times New Roman,serif" font-size="14.00" fill="blue">col1=int</text>
<polyline fill="none" stroke="black" points="0,-334.5 116,-334.5 "/>
<text text-anchor="middle" x="58" y="-319.3" font-family="Times New Roman,serif" font-size="14.00" fill="blue">col2=int</text>
<polyline fill="none" stroke="black" points="0,-311.5 116,-311.5 "/>
<text text-anchor="middle" x="58" y="-296.3" font-family="Times New Roman,serif" font-size="14.00" fill="blue">col3=int</text>
<polyline fill="none" stroke="black" points="0,-288.5 116,-288.5 "/>
<text text-anchor="middle" x="58" y="-273.3" font-family="Times New Roman,serif" font-size="14.00" fill="blue">col4=int</text>
<polyline fill="none" stroke="black" points="0,-265.5 116,-265.5 "/>
<text text-anchor="middle" x="58" y="-250.3" font-family="Times New Roman,serif" font-size="14.00" fill="blue">col5=int</text>
<polyline fill="none" stroke="black" points="0,-242.5 116,-242.5 "/>
<text text-anchor="middle" x="58" y="-227.3" font-family="Times New Roman,serif" font-size="14.00" fill="blue">col6=int</text>
<polyline fill="none" stroke="black" points="0,-219.5 116,-219.5 "/>
<text text-anchor="middle" x="58" y="-204.3" font-family="Times New Roman,serif" font-size="14.00" fill="blue">col7=int</text>
<polyline fill="none" stroke="black" points="0,-196.5 116,-196.5 "/>
<text text-anchor="middle" x="58" y="-181.3" font-family="Times New Roman,serif" font-size="14.00" fill="blue">col8=int</text>
<polyline fill="none" stroke="black" points="0,-173.5 116,-173.5 "/>
<text text-anchor="middle" x="58" y="-158.3" font-family="Times New Roman,serif" font-size="14.00" fill="blue">col9=int</text>
<polyline fill="none" stroke="black" points="0,-150.5 116,-150.5 "/>
<text text-anchor="middle" x="58" y="-135.3" font-family="Times New Roman,serif" font-size="14.00" fill="blue">col10=int</text>
<polyline fill="none" stroke="black" points="0,-127.5 116,-127.5 "/>
<text text-anchor="middle" x="58" y="-112.3" font-family="Times New Roman,serif" font-size="14.00" fill="blue">col11=int</text>
<polyline fill="none" stroke="black" points="0,-104.5 116,-104.5 "/>
<text text-anchor="middle" x="58" y="-89.3" font-family="Times New Roman,serif" font-size="14.00" fill="blue">col12=int</text>
</g>
<!-- table4&#45;&gt;table2 -->
<g id="edge1" class="edge"><title>table4&#45;&gt;table2</title>
<path fill="none" stroke="black" stroke-dasharray="5,2" d="M72.0829,-426.64C82.5728,-458.067 99.1534,-487.38 125,-508 150.998,-528.741 138.401,-590.538 293.5,-509 338.226,-485.487 373.772,-444.848 400.848,-402.835"/>
<polygon fill="black" stroke="black" points="403.958,-404.465 406.323,-394.137 398.034,-400.735 403.958,-404.465"/>
<text text-anchor="middle" x="224" y="-544.8" font-family="Times New Roman,serif" font-size="14.00">first_index &#45;&gt; first_index</text>
<text text-anchor="middle" x="224" y="-529.8" font-family="Times New Roman,serif" font-size="14.00">second_index &#45;&gt; &#39;index&#39;</text>
</g>
<!-- table5 -->
<g id="node5" class="node"><title>table5</title>
<polygon fill="none" stroke="black" points="134,-81.5 134,-426.5 250,-426.5 250,-81.5 134,-81.5"/>
<text text-anchor="middle" x="192" y="-411.3" font-family="Times New Roman,serif" font-size="14.00" fill="blue">table5</text>
<polyline fill="none" stroke="black" points="134,-403.5 250,-403.5 "/>
<text text-anchor="middle" x="192" y="-388.3" font-family="Times New Roman,serif" font-size="14.00" fill="blue">first_index=int</text>
<polyline fill="none" stroke="black" points="134,-380.5 250,-380.5 "/>
<text text-anchor="middle" x="192" y="-365.3" font-family="Times New Roman,serif" font-size="14.00" fill="blue">second_index=int</text>
<polyline fill="none" stroke="black" points="134,-357.5 250,-357.5 "/>
<text text-anchor="middle" x="192" y="-342.3" font-family="Times New Roman,serif" font-size="14.00" fill="blue">col1=int</text>
<polyline fill="none" stroke="black" points="134,-334.5 250,-334.5 "/>
<text text-anchor="middle" x="192" y="-319.3" font-family="Times New Roman,serif" font-size="14.00" fill="blue">col2=int</text>
<polyline fill="none" stroke="black" points="134,-311.5 250,-311.5 "/>
<text text-anchor="middle" x="192" y="-296.3" font-family="Times New Roman,serif" font-size="14.00" fill="blue">col3=int</text>
<polyline fill="none" stroke="black" points="134,-288.5 250,-288.5 "/>
<text text-anchor="middle" x="192" y="-273.3" font-family="Times New Roman,serif" font-size="14.00" fill="blue">col4=int</text>
<polyline fill="none" stroke="black" points="134,-265.5 250,-265.5 "/>
<text text-anchor="middle" x="192" y="-250.3" font-family="Times New Roman,serif" font-size="14.00" fill="blue">col5=int</text>
<polyline fill="none" stroke="black" points="134,-242.5 250,-242.5 "/>
<text text-anchor="middle" x="192" y="-227.3" font-family="Times New Roman,serif" font-size="14.00" fill="blue">col6=int</text>
<polyline fill="none" stroke="black" points="134,-219.5 250,-219.5 "/>
<text text-anchor="middle" x="192" y="-204.3" font-family="Times New Roman,serif" font-size="14.00" fill="blue">col7=int</text>
<polyline fill="none" stroke="black" points="134,-196.5 250,-196.5 "/>
<text text-anchor="middle" x="192" y="-181.3" font-family="Times New Roman,serif" font-size="14.00" fill="blue">col8=int</text>
<polyline fill="none" stroke="black" points="134,-173.5 250,-173.5 "/>
<text text-anchor="middle" x="192" y="-158.3" font-family="Times New Roman,serif" font-size="14.00" fill="blue">col9=int</text>
<polyline fill="none" stroke="black" points="134,-150.5 250,-150.5 "/>
<text text-anchor="middle" x="192" y="-135.3" font-family="Times New Roman,serif" font-size="14.00" fill="blue">col10=int</text>
<polyline fill="none" stroke="black" points="134,-127.5 250,-127.5 "/>
<text text-anchor="middle" x="192" y="-112.3" font-family="Times New Roman,serif" font-size="14.00" fill="blue">col11=int</text>
<polyline fill="none" stroke="black" points="134,-104.5 250,-104.5 "/>
<text text-anchor="middle" x="192" y="-89.3" font-family="Times New Roman,serif" font-size="14.00" fill="blue">col12=int</text>
</g>
<!-- table5&#45;&gt;table2 -->
<g id="edge2" class="edge"><title>table5&#45;&gt;table2</title>
<path fill="none" stroke="black" stroke-dasharray="5,2" d="M250.068,-254C292.545,-254 350.468,-254 396.066,-254"/>
<polygon fill="black" stroke="black" points="396.188,-257.5 406.188,-254 396.188,-250.5 396.188,-257.5"/>
<text text-anchor="middle" x="328.25" y="-275.8" font-family="Times New Roman,serif" font-size="14.00">first_index &#45;&gt; first_index</text>
<text text-anchor="middle" x="328.25" y="-260.8" font-family="Times New Roman,serif" font-size="14.00">second_index &#45;&gt; &#39;index&#39;</text>
</g>
<!-- changelog -->
<g id="node6" class="node"><title>changelog</title>
<polygon fill="none" stroke="black" points="500,-1019 500,-1157 612,-1157 612,-1019 500,-1019"/>
<text text-anchor="middle" x="556" y="-1141.8" font-family="Times New Roman,serif" font-size="14.00" fill="blue">changelog</text>
<polyline fill="none" stroke="black" points="500,-1134 612,-1134 "/>
<text text-anchor="middle" x="556" y="-1118.8" font-family="Times New Roman,serif" font-size="14.00" fill="blue">date=datetime</text>
<polyline fill="none" stroke="black" points="500,-1111 612,-1111 "/>
<text text-anchor="middle" x="556" y="-1095.8" font-family="Times New Roman,serif" font-size="14.00" fill="blue">name=char(49)</text>
<polyline fill="none" stroke="black" points="500,-1088 612,-1088 "/>
<text text-anchor="middle" x="556" y="-1072.8" font-family="Times New Roman,serif" font-size="14.00" fill="blue">uuid=int</text>
<polyline fill="none" stroke="black" points="500,-1065 612,-1065 "/>
<text text-anchor="middle" x="556" y="-1049.8" font-family="Times New Roman,serif" font-size="14.00" fill="blue">action=char(199)</text>
<polyline fill="none" stroke="black" points="500,-1042 612,-1042 "/>
<text text-anchor="middle" x="556" y="-1026.8" font-family="Times New Roman,serif" font-size="14.00" fill="blue">version=int</text>
</g>
<!-- changelog&#45;&gt;table3 -->
<g id="edge6" class="edge"><title>changelog&#45;&gt;table3</title>
<path fill="none" stroke="black" stroke-dasharray="5,2" d="M504.444,-1018.95C501.186,-1012.75 498.299,-1006.39 496,-1000 493.135,-992.038 490.607,-983.824 488.38,-975.454"/>
<polygon fill="black" stroke="black" points="491.728,-974.413 485.903,-965.563 484.938,-976.114 491.728,-974.413"/>
<text text-anchor="middle" x="552.5" y="-988.3" font-family="Times New Roman,serif" font-size="14.00">version&#45;&gt;version ?!!</text>
</g>
<!-- changelog&#45;&gt;table2 -->
<g id="edge5" class="edge"><title>changelog&#45;&gt;table2</title>
<path fill="none" stroke="black" stroke-dasharray="5,2" d="M602.117,-1018.76C604.868,-1012.6 607.232,-1006.3 609,-1000 665.917,-797.168 658.753,-730.707 609,-526 594.636,-466.899 564.98,-406.28 536.646,-357.402"/>
<polygon fill="black" stroke="black" points="539.638,-355.585 531.56,-348.728 533.599,-359.125 539.638,-355.585"/>
<text text-anchor="middle" x="696" y="-766.3" font-family="Times New Roman,serif" font-size="14.00">version&#45;&gt;version</text>
</g>
</g>
</svg>
