<?xml version="1.0" encoding="UTF-8" standalone="no"?>
<!DOCTYPE svg PUBLIC "-//W3C//DTD SVG 1.1//EN"
 "http://www.w3.org/Graphics/SVG/1.1/DTD/svg11.dtd">
<!-- Generated by graphviz version 2.36.0 (20140111.2315)
 -->
<!-- Title: database&#45;schema Pages: 1 -->
<svg width="414pt" height="1578pt"
 viewBox="0.00 0.00 414.00 1578.00" xmlns="http://www.w3.org/2000/svg" xmlns:xlink="http://www.w3.org/1999/xlink">
<g id="graph0" class="graph" transform="scale(1 1) rotate(0) translate(4 1574)">
<title>database&#45;schema</title>
<polygon fill="white" stroke="none" points="-4,4 -4,-1574 410,-1574 410,4 -4,4"/>
<!-- table1 -->
<g id="node1" class="node"><title>table1</title>
<polygon fill="none" stroke="black" points="-0.5,-1147.5 -0.5,-1216.5 94.5,-1216.5 94.5,-1147.5 -0.5,-1147.5"/>
<text text-anchor="middle" x="47" y="-1201.3" font-family="Times New Roman,serif" font-size="14.00" fill="blue">table1</text>
<polyline fill="none" stroke="black" points="-0.5,-1193.5 94.5,-1193.5 "/>
<text text-anchor="middle" x="47" y="-1178.3" font-family="Times New Roman,serif" font-size="14.00" fill="blue">name=varchar</text>
<polyline fill="none" stroke="black" points="-0.5,-1170.5 94.5,-1170.5 "/>
<text text-anchor="middle" x="47" y="-1155.3" font-family="Times New Roman,serif" font-size="14.00" fill="blue">index=integer</text>
</g>
<!-- table2 -->
<g id="node2" class="node"><title>table2</title>
<polygon fill="none" stroke="black" points="108.5,-413 108.5,-919 233.5,-919 233.5,-413 108.5,-413"/>
<text text-anchor="middle" x="171" y="-903.8" font-family="Times New Roman,serif" font-size="14.00" fill="blue">table2</text>
<polyline fill="none" stroke="black" points="108.5,-896 233.5,-896 "/>
<text text-anchor="middle" x="171" y="-880.8" font-family="Times New Roman,serif" font-size="14.00" fill="blue">name=varchar</text>
<polyline fill="none" stroke="black" points="108.5,-873 233.5,-873 "/>
<text text-anchor="middle" x="171" y="-857.8" font-family="Times New Roman,serif" font-size="14.00" fill="blue">grid_name=varchar</text>
<polyline fill="none" stroke="black" points="108.5,-850 233.5,-850 "/>
<text text-anchor="middle" x="171" y="-834.8" font-family="Times New Roman,serif" font-size="14.00" fill="blue">first_index=int</text>
<polyline fill="none" stroke="black" points="108.5,-827 233.5,-827 "/>
<text text-anchor="middle" x="171" y="-811.8" font-family="Times New Roman,serif" font-size="14.00" fill="blue">index=int</text>
<polyline fill="none" stroke="black" points="108.5,-804 233.5,-804 "/>
<text text-anchor="middle" x="171" y="-788.8" font-family="Times New Roman,serif" font-size="14.00" fill="blue">num_col=int</text>
<polyline fill="none" stroke="black" points="108.5,-781 233.5,-781 "/>
<text text-anchor="middle" x="171" y="-765.8" font-family="Times New Roman,serif" font-size="14.00" fill="blue">vol_col=int</text>
<polyline fill="none" stroke="black" points="108.5,-758 233.5,-758 "/>
<text text-anchor="middle" x="171" y="-742.8" font-family="Times New Roman,serif" font-size="14.00" fill="blue">perc_col=int</text>
<polyline fill="none" stroke="black" points="108.5,-735 233.5,-735 "/>
<text text-anchor="middle" x="171" y="-719.8" font-family="Times New Roman,serif" font-size="14.00" fill="blue">col1=int</text>
<polyline fill="none" stroke="black" points="108.5,-712 233.5,-712 "/>
<text text-anchor="middle" x="171" y="-696.8" font-family="Times New Roman,serif" font-size="14.00" fill="blue">col2=int</text>
<polyline fill="none" stroke="black" points="108.5,-689 233.5,-689 "/>
<text text-anchor="middle" x="171" y="-673.8" font-family="Times New Roman,serif" font-size="14.00" fill="blue">col3=int</text>
<polyline fill="none" stroke="black" points="108.5,-666 233.5,-666 "/>
<text text-anchor="middle" x="171" y="-650.8" font-family="Times New Roman,serif" font-size="14.00" fill="blue">col4=int</text>
<polyline fill="none" stroke="black" points="108.5,-643 233.5,-643 "/>
<text text-anchor="middle" x="171" y="-627.8" font-family="Times New Roman,serif" font-size="14.00" fill="blue">col5=int</text>
<polyline fill="none" stroke="black" points="108.5,-620 233.5,-620 "/>
<text text-anchor="middle" x="171" y="-604.8" font-family="Times New Roman,serif" font-size="14.00" fill="blue">col6=int</text>
<polyline fill="none" stroke="black" points="108.5,-597 233.5,-597 "/>
<text text-anchor="middle" x="171" y="-581.8" font-family="Times New Roman,serif" font-size="14.00" fill="blue">col7=int</text>
<polyline fill="none" stroke="black" points="108.5,-574 233.5,-574 "/>
<text text-anchor="middle" x="171" y="-558.8" font-family="Times New Roman,serif" font-size="14.00" fill="blue">col8=int</text>
<polyline fill="none" stroke="black" points="108.5,-551 233.5,-551 "/>
<text text-anchor="middle" x="171" y="-535.8" font-family="Times New Roman,serif" font-size="14.00" fill="blue">col9=int</text>
<polyline fill="none" stroke="black" points="108.5,-528 233.5,-528 "/>
<text text-anchor="middle" x="171" y="-512.8" font-family="Times New Roman,serif" font-size="14.00" fill="blue">col10=int</text>
<polyline fill="none" stroke="black" points="108.5,-505 233.5,-505 "/>
<text text-anchor="middle" x="171" y="-489.8" font-family="Times New Roman,serif" font-size="14.00" fill="blue">col11=int</text>
<polyline fill="none" stroke="black" points="108.5,-482 233.5,-482 "/>
<text text-anchor="middle" x="171" y="-466.8" font-family="Times New Roman,serif" font-size="14.00" fill="blue">col12=int</text>
<polyline fill="none" stroke="black" points="108.5,-459 233.5,-459 "/>
<text text-anchor="middle" x="171" y="-443.8" font-family="Times New Roman,serif" font-size="14.00" fill="blue">version=int</text>
<polyline fill="none" stroke="black" points="108.5,-436 233.5,-436 "/>
<text text-anchor="middle" x="171" y="-420.8" font-family="Times New Roman,serif" font-size="14.00" fill="blue">active=int</text>
</g>
<!-- table1&#45;&gt;table2 -->
<g id="edge4" class="edge"><title>table1&#45;&gt;table2</title>
<path fill="none" stroke="black" stroke-dasharray="5,2" d="M42.7158,-1147.1C37.7172,-1099.69 32.017,-1011.16 48,-938 59.3725,-885.945 81.5423,-831.853 103.965,-785.812"/>
<polygon fill="black" stroke="black" points="107.167,-787.231 108.45,-776.714 100.889,-784.136 107.167,-787.231"/>
<text text-anchor="middle" x="102.5" y="-949.3" font-family="Times New Roman,serif" font-size="14.00">first_index&#45;&gt;&#39;index&#39;</text>
</g>
<!-- table4 -->
<g id="node4" class="node"><title>table4</title>
<polygon fill="none" stroke="black" points="32,-0.5 32,-345.5 148,-345.5 148,-0.5 32,-0.5"/>
<text text-anchor="middle" x="90" y="-330.3" font-family="Times New Roman,serif" font-size="14.00" fill="blue">table4</text>
<polyline fill="none" stroke="black" points="32,-322.5 148,-322.5 "/>
<text text-anchor="middle" x="90" y="-307.3" font-family="Times New Roman,serif" font-size="14.00" fill="blue">first_index=int</text>
<polyline fill="none" stroke="black" points="32,-299.5 148,-299.5 "/>
<text text-anchor="middle" x="90" y="-284.3" font-family="Times New Roman,serif" font-size="14.00" fill="blue">second_index=int</text>
<polyline fill="none" stroke="black" points="32,-276.5 148,-276.5 "/>
<text text-anchor="middle" x="90" y="-261.3" font-family="Times New Roman,serif" font-size="14.00" fill="blue">col1=int</text>
<polyline fill="none" stroke="black" points="32,-253.5 148,-253.5 "/>
<text text-anchor="middle" x="90" y="-238.3" font-family="Times New Roman,serif" font-size="14.00" fill="blue">col2=int</text>
<polyline fill="none" stroke="black" points="32,-230.5 148,-230.5 "/>
<text text-anchor="middle" x="90" y="-215.3" font-family="Times New Roman,serif" font-size="14.00" fill="blue">col3=int</text>
<polyline fill="none" stroke="black" points="32,-207.5 148,-207.5 "/>
<text text-anchor="middle" x="90" y="-192.3" font-family="Times New Roman,serif" font-size="14.00" fill="blue">col4=int</text>
<polyline fill="none" stroke="black" points="32,-184.5 148,-184.5 "/>
<text text-anchor="middle" x="90" y="-169.3" font-family="Times New Roman,serif" font-size="14.00" fill="blue">col5=int</text>
<polyline fill="none" stroke="black" points="32,-161.5 148,-161.5 "/>
<text text-anchor="middle" x="90" y="-146.3" font-family="Times New Roman,serif" font-size="14.00" fill="blue">col6=int</text>
<polyline fill="none" stroke="black" points="32,-138.5 148,-138.5 "/>
<text text-anchor="middle" x="90" y="-123.3" font-family="Times New Roman,serif" font-size="14.00" fill="blue">col7=int</text>
<polyline fill="none" stroke="black" points="32,-115.5 148,-115.5 "/>
<text text-anchor="middle" x="90" y="-100.3" font-family="Times New Roman,serif" font-size="14.00" fill="blue">col8=int</text>
<polyline fill="none" stroke="black" points="32,-92.5 148,-92.5 "/>
<text text-anchor="middle" x="90" y="-77.3" font-family="Times New Roman,serif" font-size="14.00" fill="blue">col9=int</text>
<polyline fill="none" stroke="black" points="32,-69.5 148,-69.5 "/>
<text text-anchor="middle" x="90" y="-54.3" font-family="Times New Roman,serif" font-size="14.00" fill="blue">col10=int</text>
<polyline fill="none" stroke="black" points="32,-46.5 148,-46.5 "/>
<text text-anchor="middle" x="90" y="-31.3" font-family="Times New Roman,serif" font-size="14.00" fill="blue">col11=int</text>
<polyline fill="none" stroke="black" points="32,-23.5 148,-23.5 "/>
<text text-anchor="middle" x="90" y="-8.3" font-family="Times New Roman,serif" font-size="14.00" fill="blue">col12=int</text>
</g>
<!-- table2&#45;&gt;table4 -->
<g id="edge1" class="edge"><title>table2&#45;&gt;table4</title>
<path fill="none" stroke="black" stroke-dasharray="5,2" d="M108.496,-478.473C101.282,-450.446 95.0623,-421.665 91,-394 89.1939,-381.7 87.8308,-368.971 86.8274,-356.122"/>
<polygon fill="black" stroke="black" points="90.2941,-355.525 86.0982,-345.797 83.3115,-356.018 90.2941,-355.525"/>
<text text-anchor="middle" x="160.5" y="-382.8" font-family="Times New Roman,serif" font-size="14.00">first_index &#45;&gt; first_index</text>
<text text-anchor="middle" x="160.5" y="-367.8" font-family="Times New Roman,serif" font-size="14.00">second_index &#45;&gt; &#39;index&#39;</text>
</g>
<!-- table5 -->
<g id="node5" class="node"><title>table5</title>
<polygon fill="none" stroke="black" points="194,-0.5 194,-345.5 310,-345.5 310,-0.5 194,-0.5"/>
<text text-anchor="middle" x="252" y="-330.3" font-family="Times New Roman,serif" font-size="14.00" fill="blue">table5</text>
<polyline fill="none" stroke="black" points="194,-322.5 310,-322.5 "/>
<text text-anchor="middle" x="252" y="-307.3" font-family="Times New Roman,serif" font-size="14.00" fill="blue">first_index=int</text>
<polyline fill="none" stroke="black" points="194,-299.5 310,-299.5 "/>
<text text-anchor="middle" x="252" y="-284.3" font-family="Times New Roman,serif" font-size="14.00" fill="blue">second_index=int</text>
<polyline fill="none" stroke="black" points="194,-276.5 310,-276.5 "/>
<text text-anchor="middle" x="252" y="-261.3" font-family="Times New Roman,serif" font-size="14.00" fill="blue">col1=int</text>
<polyline fill="none" stroke="black" points="194,-253.5 310,-253.5 "/>
<text text-anchor="middle" x="252" y="-238.3" font-family="Times New Roman,serif" font-size="14.00" fill="blue">col2=int</text>
<polyline fill="none" stroke="black" points="194,-230.5 310,-230.5 "/>
<text text-anchor="middle" x="252" y="-215.3" font-family="Times New Roman,serif" font-size="14.00" fill="blue">col3=int</text>
<polyline fill="none" stroke="black" points="194,-207.5 310,-207.5 "/>
<text text-anchor="middle" x="252" y="-192.3" font-family="Times New Roman,serif" font-size="14.00" fill="blue">col4=int</text>
<polyline fill="none" stroke="black" points="194,-184.5 310,-184.5 "/>
<text text-anchor="middle" x="252" y="-169.3" font-family="Times New Roman,serif" font-size="14.00" fill="blue">col5=int</text>
<polyline fill="none" stroke="black" points="194,-161.5 310,-161.5 "/>
<text text-anchor="middle" x="252" y="-146.3" font-family="Times New Roman,serif" font-size="14.00" fill="blue">col6=int</text>
<polyline fill="none" stroke="black" points="194,-138.5 310,-138.5 "/>
<text text-anchor="middle" x="252" y="-123.3" font-family="Times New Roman,serif" font-size="14.00" fill="blue">col7=int</text>
<polyline fill="none" stroke="black" points="194,-115.5 310,-115.5 "/>
<text text-anchor="middle" x="252" y="-100.3" font-family="Times New Roman,serif" font-size="14.00" fill="blue">col8=int</text>
<polyline fill="none" stroke="black" points="194,-92.5 310,-92.5 "/>
<text text-anchor="middle" x="252" y="-77.3" font-family="Times New Roman,serif" font-size="14.00" fill="blue">col9=int</text>
<polyline fill="none" stroke="black" points="194,-69.5 310,-69.5 "/>
<text text-anchor="middle" x="252" y="-54.3" font-family="Times New Roman,serif" font-size="14.00" fill="blue">col10=int</text>
<polyline fill="none" stroke="black" points="194,-46.5 310,-46.5 "/>
<text text-anchor="middle" x="252" y="-31.3" font-family="Times New Roman,serif" font-size="14.00" fill="blue">col11=int</text>
<polyline fill="none" stroke="black" points="194,-23.5 310,-23.5 "/>
<text text-anchor="middle" x="252" y="-8.3" font-family="Times New Roman,serif" font-size="14.00" fill="blue">col12=int</text>
</g>
<!-- table2&#45;&gt;table5 -->
<g id="edge2" class="edge"><title>table2&#45;&gt;table5</title>
<path fill="none" stroke="black" stroke-dasharray="5,2" d="M226.913,-412.737C227.99,-406.436 229.021,-400.183 230,-394 231.973,-381.538 233.802,-368.649 235.492,-355.648"/>
<polygon fill="black" stroke="black" points="238.969,-356.051 236.757,-345.689 232.024,-355.169 238.969,-356.051"/>
<text text-anchor="middle" x="304.5" y="-382.8" font-family="Times New Roman,serif" font-size="14.00">first_index &#45;&gt; first_index</text>
<text text-anchor="middle" x="304.5" y="-367.8" font-family="Times New Roman,serif" font-size="14.00">second_index &#45;&gt; &#39;index&#39;</text>
</g>
<!-- table3 -->
<g id="node3" class="node"><title>table3</title>
<polygon fill="none" stroke="black" points="283,-986.5 283,-1377.5 399,-1377.5 399,-986.5 283,-986.5"/>
<text text-anchor="middle" x="341" y="-1362.3" font-family="Times New Roman,serif" font-size="14.00" fill="blue">table3</text>
<polyline fill="none" stroke="black" points="283,-1354.5 399,-1354.5 "/>
<text text-anchor="middle" x="341" y="-1339.3" font-family="Times New Roman,serif" font-size="14.00" fill="blue">first_index=int</text>
<polyline fill="none" stroke="black" points="283,-1331.5 399,-1331.5 "/>
<text text-anchor="middle" x="341" y="-1316.3" font-family="Times New Roman,serif" font-size="14.00" fill="blue">second_index=int</text>
<polyline fill="none" stroke="black" points="283,-1308.5 399,-1308.5 "/>
<text text-anchor="middle" x="341" y="-1293.3" font-family="Times New Roman,serif" font-size="14.00" fill="blue">date=datetime</text>
<polyline fill="none" stroke="black" points="283,-1285.5 399,-1285.5 "/>
<text text-anchor="middle" x="341" y="-1270.3" font-family="Times New Roman,serif" font-size="14.00" fill="blue">remarks=varchar</text>
<polyline fill="none" stroke="black" points="283,-1262.5 399,-1262.5 "/>
<text text-anchor="middle" x="341" y="-1247.3" font-family="Times New Roman,serif" font-size="14.00" fill="blue">col1=int</text>
<polyline fill="none" stroke="black" points="283,-1239.5 399,-1239.5 "/>
<text text-anchor="middle" x="341" y="-1224.3" font-family="Times New Roman,serif" font-size="14.00" fill="blue">col2=int</text>
<polyline fill="none" stroke="black" points="283,-1216.5 399,-1216.5 "/>
<text text-anchor="middle" x="341" y="-1201.3" font-family="Times New Roman,serif" font-size="14.00" fill="blue">col3=int</text>
<polyline fill="none" stroke="black" points="283,-1193.5 399,-1193.5 "/>
<text text-anchor="middle" x="341" y="-1178.3" font-family="Times New Roman,serif" font-size="14.00" fill="blue">col4=int</text>
<polyline fill="none" stroke="black" points="283,-1170.5 399,-1170.5 "/>
<text text-anchor="middle" x="341" y="-1155.3" font-family="Times New Roman,serif" font-size="14.00" fill="blue">col5=int</text>
<polyline fill="none" stroke="black" points="283,-1147.5 399,-1147.5 "/>
<text text-anchor="middle" x="341" y="-1132.3" font-family="Times New Roman,serif" font-size="14.00" fill="blue">col6=int</text>
<polyline fill="none" stroke="black" points="283,-1124.5 399,-1124.5 "/>
<text text-anchor="middle" x="341" y="-1109.3" font-family="Times New Roman,serif" font-size="14.00" fill="blue">col7=int</text>
<polyline fill="none" stroke="black" points="283,-1101.5 399,-1101.5 "/>
<text text-anchor="middle" x="341" y="-1086.3" font-family="Times New Roman,serif" font-size="14.00" fill="blue">col8=int</text>
<polyline fill="none" stroke="black" points="283,-1078.5 399,-1078.5 "/>
<text text-anchor="middle" x="341" y="-1063.3" font-family="Times New Roman,serif" font-size="14.00" fill="blue">col9=int</text>
<polyline fill="none" stroke="black" points="283,-1055.5 399,-1055.5 "/>
<text text-anchor="middle" x="341" y="-1040.3" font-family="Times New Roman,serif" font-size="14.00" fill="blue">col10=int</text>
<polyline fill="none" stroke="black" points="283,-1032.5 399,-1032.5 "/>
<text text-anchor="middle" x="341" y="-1017.3" font-family="Times New Roman,serif" font-size="14.00" fill="blue">version=int</text>
<polyline fill="none" stroke="black" points="283,-1009.5 399,-1009.5 "/>
<text text-anchor="middle" x="341" y="-994.3" font-family="Times New Roman,serif" font-size="14.00" fill="blue">active=int</text>
</g>
<!-- table3&#45;&gt;table2 -->
<g id="edge3" class="edge"><title>table3&#45;&gt;table2</title>
<path fill="none" stroke="black" stroke-dasharray="5,2" d="M282.971,-1005.55C268.109,-960.613 252.02,-911.967 236.798,-865.943"/>
<polygon fill="black" stroke="black" points="240.027,-864.559 233.564,-856.164 233.381,-866.757 240.027,-864.559"/>
<text text-anchor="middle" x="336.5" y="-956.8" font-family="Times New Roman,serif" font-size="14.00">first_index &#45;&gt; first_index</text>
<text text-anchor="middle" x="336.5" y="-941.8" font-family="Times New Roman,serif" font-size="14.00">second_index &#45;&gt; &#39;index&#39;</text>
</g>
<!-- changelog -->
<g id="node6" class="node"><title>changelog</title>
<polygon fill="none" stroke="black" points="165,-1431 165,-1569 277,-1569 277,-1431 165,-1431"/>
<text text-anchor="middle" x="221" y="-1553.8" font-family="Times New Roman,serif" font-size="14.00" fill="blue">changelog</text>
<polyline fill="none" stroke="black" points="165,-1546 277,-1546 "/>
<text text-anchor="middle" x="221" y="-1530.8" font-family="Times New Roman,serif" font-size="14.00" fill="blue">date=datetime</text>
<polyline fill="none" stroke="black" points="165,-1523 277,-1523 "/>
<text text-anchor="middle" x="221" y="-1507.8" font-family="Times New Roman,serif" font-size="14.00" fill="blue">name=char(49)</text>
<polyline fill="none" stroke="black" points="165,-1500 277,-1500 "/>
<text text-anchor="middle" x="221" y="-1484.8" font-family="Times New Roman,serif" font-size="14.00" fill="blue">uuid=int</text>
<polyline fill="none" stroke="black" points="165,-1477 277,-1477 "/>
<text text-anchor="middle" x="221" y="-1461.8" font-family="Times New Roman,serif" font-size="14.00" fill="blue">action=char(199)</text>
<polyline fill="none" stroke="black" points="165,-1454 277,-1454 "/>
<text text-anchor="middle" x="221" y="-1438.8" font-family="Times New Roman,serif" font-size="14.00" fill="blue">version=int</text>
</g>
<!-- changelog&#45;&gt;table2 -->
<g id="edge5" class="edge"><title>changelog&#45;&gt;table2</title>
<path fill="none" stroke="black" stroke-dasharray="5,2" d="M193.758,-1430.86C188.124,-1413.86 182.996,-1395.49 180,-1378 165.681,-1294.43 164.138,-1095.81 165.783,-929.682"/>
<polygon fill="black" stroke="black" points="169.287,-929.327 165.89,-919.291 162.287,-929.255 169.287,-929.327"/>
<text text-anchor="middle" x="227" y="-1178.3" font-family="Times New Roman,serif" font-size="14.00">version&#45;&gt;version</text>
</g>
<!-- changelog&#45;&gt;table3 -->
<g id="edge6" class="edge"><title>changelog&#45;&gt;table3</title>
<path fill="none" stroke="black" stroke-dasharray="5,2" d="M248.322,-1430.96C255.156,-1413.71 262.414,-1395.2 269,-1378 272.4,-1369.12 275.863,-1360 279.34,-1350.79"/>
<polygon fill="black" stroke="black" points="282.717,-1351.75 282.966,-1341.16 276.166,-1349.29 282.717,-1351.75"/>
<text text-anchor="middle" x="318.5" y="-1400.3" font-family="Times New Roman,serif" font-size="14.00">version&#45;&gt;version ?!!</text>
</g>
</g>
</svg>
