<?xml version="1.0" encoding="UTF-8" standalone="no"?>
<!DOCTYPE svg PUBLIC "-//W3C//DTD SVG 1.1//EN"
 "http://www.w3.org/Graphics/SVG/1.1/DTD/svg11.dtd">
<!-- Generated by graphviz version 2.26.3 (20100126.1600)
 -->
<!-- Title: database&#45;schema Pages: 1 -->
<svg width="800pt" height="1200pt"
 viewBox="0.00 0.00 800.00 1200.00" xmlns="http://www.w3.org/2000/svg" xmlns:xlink="http://www.w3.org/1999/xlink">
<g id="graph1" class="graph" transform="scale(0.75 0.75) rotate(0) translate(133.333 1400)">
<title>database&#45;schema</title>
<polygon fill="white" stroke="white" points="-133.333,201 -133.333,-1400 934.333,-1400 934.333,201 -133.333,201"/>
<!-- database schema -->
<g id="node1" class="node"><title>database schema</title>
<polygon fill="none" stroke="black" points="357,-1328 223,-1328 223,-1292 357,-1292 357,-1328"/>
<text text-anchor="middle" x="290" y="-1305.9" font-family="Times Roman,serif" font-size="14.00">database schema</text>
</g>
<!-- table1 -->
<g id="node2" class="node"><title>table1</title>
<polygon fill="none" stroke="black" points="230.5,-1140.5 230.5,-1215.5 349.5,-1215.5 349.5,-1140.5 230.5,-1140.5"/>
<text text-anchor="middle" x="290" y="-1198.9" font-family="Times Roman,serif" font-size="14.00" fill="blue">table1</text>
<polyline fill="none" stroke="black" points="230.5,-1190.5 349.5,-1190.5 "/>
<text text-anchor="middle" x="290" y="-1173.9" font-family="Times Roman,serif" font-size="14.00" fill="blue">name=varchar</text>
<polyline fill="none" stroke="black" points="230.5,-1165.5 349.5,-1165.5 "/>
<text text-anchor="middle" x="290" y="-1148.9" font-family="Times Roman,serif" font-size="14.00" fill="blue">index=integer</text>
</g>
<!-- table1&#45;&gt;database schema -->
<!-- table2 -->
<g id="node3" class="node"><title>table2</title>
<polygon fill="none" stroke="black" points="213.5,-497 213.5,-1047 366.5,-1047 366.5,-497 213.5,-497"/>
<text text-anchor="middle" x="290" y="-1030.4" font-family="Times Roman,serif" font-size="14.00" fill="blue">table2</text>
<polyline fill="none" stroke="black" points="213.5,-1022 366.5,-1022 "/>
<text text-anchor="middle" x="290" y="-1005.4" font-family="Times Roman,serif" font-size="14.00" fill="blue">name=varchar</text>
<polyline fill="none" stroke="black" points="213.5,-997 366.5,-997 "/>
<text text-anchor="middle" x="290" y="-980.4" font-family="Times Roman,serif" font-size="14.00" fill="blue">grid_name=varchar</text>
<polyline fill="none" stroke="black" points="213.5,-972 366.5,-972 "/>
<text text-anchor="middle" x="290" y="-955.4" font-family="Times Roman,serif" font-size="14.00" fill="blue">first_index=int</text>
<polyline fill="none" stroke="black" points="213.5,-947 366.5,-947 "/>
<text text-anchor="middle" x="290" y="-930.4" font-family="Times Roman,serif" font-size="14.00" fill="blue">index=int</text>
<polyline fill="none" stroke="black" points="213.5,-922 366.5,-922 "/>
<text text-anchor="middle" x="290" y="-905.4" font-family="Times Roman,serif" font-size="14.00" fill="blue">num_col=int</text>
<polyline fill="none" stroke="black" points="213.5,-897 366.5,-897 "/>
<text text-anchor="middle" x="290" y="-880.4" font-family="Times Roman,serif" font-size="14.00" fill="blue">vol_col=int</text>
<polyline fill="none" stroke="black" points="213.5,-872 366.5,-872 "/>
<text text-anchor="middle" x="290" y="-855.4" font-family="Times Roman,serif" font-size="14.00" fill="blue">perc_col=int</text>
<polyline fill="none" stroke="black" points="213.5,-847 366.5,-847 "/>
<text text-anchor="middle" x="290" y="-830.4" font-family="Times Roman,serif" font-size="14.00" fill="blue">col1=int</text>
<polyline fill="none" stroke="black" points="213.5,-822 366.5,-822 "/>
<text text-anchor="middle" x="290" y="-805.4" font-family="Times Roman,serif" font-size="14.00" fill="blue">col2=int</text>
<polyline fill="none" stroke="black" points="213.5,-797 366.5,-797 "/>
<text text-anchor="middle" x="290" y="-780.4" font-family="Times Roman,serif" font-size="14.00" fill="blue">col3=int</text>
<polyline fill="none" stroke="black" points="213.5,-772 366.5,-772 "/>
<text text-anchor="middle" x="290" y="-755.4" font-family="Times Roman,serif" font-size="14.00" fill="blue">col4=int</text>
<polyline fill="none" stroke="black" points="213.5,-747 366.5,-747 "/>
<text text-anchor="middle" x="290" y="-730.4" font-family="Times Roman,serif" font-size="14.00" fill="blue">col5=int</text>
<polyline fill="none" stroke="black" points="213.5,-722 366.5,-722 "/>
<text text-anchor="middle" x="290" y="-705.4" font-family="Times Roman,serif" font-size="14.00" fill="blue">col6=int</text>
<polyline fill="none" stroke="black" points="213.5,-697 366.5,-697 "/>
<text text-anchor="middle" x="290" y="-680.4" font-family="Times Roman,serif" font-size="14.00" fill="blue">col7=int</text>
<polyline fill="none" stroke="black" points="213.5,-672 366.5,-672 "/>
<text text-anchor="middle" x="290" y="-655.4" font-family="Times Roman,serif" font-size="14.00" fill="blue">col8=int</text>
<polyline fill="none" stroke="black" points="213.5,-647 366.5,-647 "/>
<text text-anchor="middle" x="290" y="-630.4" font-family="Times Roman,serif" font-size="14.00" fill="blue">col9=int</text>
<polyline fill="none" stroke="black" points="213.5,-622 366.5,-622 "/>
<text text-anchor="middle" x="290" y="-605.4" font-family="Times Roman,serif" font-size="14.00" fill="blue">col10=int</text>
<polyline fill="none" stroke="black" points="213.5,-597 366.5,-597 "/>
<text text-anchor="middle" x="290" y="-580.4" font-family="Times Roman,serif" font-size="14.00" fill="blue">col11=int</text>
<polyline fill="none" stroke="black" points="213.5,-572 366.5,-572 "/>
<text text-anchor="middle" x="290" y="-555.4" font-family="Times Roman,serif" font-size="14.00" fill="blue">col12=int</text>
<polyline fill="none" stroke="black" points="213.5,-547 366.5,-547 "/>
<text text-anchor="middle" x="290" y="-530.4" font-family="Times Roman,serif" font-size="14.00" fill="blue">version=int</text>
<polyline fill="none" stroke="black" points="213.5,-522 366.5,-522 "/>
<text text-anchor="middle" x="290" y="-505.4" font-family="Times Roman,serif" font-size="14.00" fill="blue">active=int</text>
</g>
<!-- table2&#45;&gt;table1 -->
<g id="edge8" class="edge"><title>table2&#45;&gt;table1</title>
<path fill="none" stroke="black" stroke-dasharray="5,2" d="M290,-1047.02C290,-1078.58 290,-1107.46 290,-1130.03"/>
<polygon fill="black" stroke="black" points="286.5,-1130.27 290,-1140.27 293.5,-1130.27 286.5,-1130.27"/>
<text text-anchor="middle" x="356.5" y="-1070.9" font-family="Times Roman,serif" font-size="14.00">first_index&#45;&gt;&#39;index&#39;</text>
</g>
<!-- changelog -->
<g id="node7" class="node"><title>changelog</title>
<polygon fill="none" stroke="black" points="30,-1103 30,-1253 168,-1253 168,-1103 30,-1103"/>
<text text-anchor="middle" x="99" y="-1236.4" font-family="Times Roman,serif" font-size="14.00" fill="blue">changelog</text>
<polyline fill="none" stroke="black" points="30,-1228 168,-1228 "/>
<text text-anchor="middle" x="99" y="-1211.4" font-family="Times Roman,serif" font-size="14.00" fill="blue">date=datetime</text>
<polyline fill="none" stroke="black" points="30,-1203 168,-1203 "/>
<text text-anchor="middle" x="99" y="-1186.4" font-family="Times Roman,serif" font-size="14.00" fill="blue">name=char(49)</text>
<polyline fill="none" stroke="black" points="30,-1178 168,-1178 "/>
<text text-anchor="middle" x="99" y="-1161.4" font-family="Times Roman,serif" font-size="14.00" fill="blue">uuid=int</text>
<polyline fill="none" stroke="black" points="30,-1153 168,-1153 "/>
<text text-anchor="middle" x="99" y="-1136.4" font-family="Times Roman,serif" font-size="14.00" fill="blue">action=char(199)</text>
<polyline fill="none" stroke="black" points="30,-1128 168,-1128 "/>
<text text-anchor="middle" x="99" y="-1111.4" font-family="Times Roman,serif" font-size="14.00" fill="blue">version=int</text>
</g>
<!-- table2&#45;&gt;changelog -->
<g id="edge10" class="edge"><title>table2&#45;&gt;changelog</title>
<path fill="none" stroke="black" stroke-dasharray="5,2" d="M213.42,-1030.04C209.183,-1036.25 204.714,-1042.25 200,-1048 189.653,-1060.62 179.766,-1054.69 168,-1066 159.164,-1074.49 151.001,-1084.34 143.617,-1094.61"/>
<polygon fill="black" stroke="black" points="140.68,-1092.71 137.864,-1102.92 146.435,-1096.69 140.68,-1092.71"/>
<text text-anchor="middle" x="227" y="-1070.9" font-family="Times Roman,serif" font-size="14.00">version&#45;&gt;version</text>
</g>
<!-- table3 -->
<g id="node4" class="node"><title>table3</title>
<polygon fill="none" stroke="black" points="0,-0.5 0,-425.5 140,-425.5 140,-0.5 0,-0.5"/>
<text text-anchor="middle" x="70" y="-408.9" font-family="Times Roman,serif" font-size="14.00" fill="blue">table3</text>
<polyline fill="none" stroke="black" points="0,-400.5 140,-400.5 "/>
<text text-anchor="middle" x="70" y="-383.9" font-family="Times Roman,serif" font-size="14.00" fill="blue">first_index=int</text>
<polyline fill="none" stroke="black" points="0,-375.5 140,-375.5 "/>
<text text-anchor="middle" x="70" y="-358.9" font-family="Times Roman,serif" font-size="14.00" fill="blue">second_index=int</text>
<polyline fill="none" stroke="black" points="0,-350.5 140,-350.5 "/>
<text text-anchor="middle" x="70" y="-333.9" font-family="Times Roman,serif" font-size="14.00" fill="blue">date=datetime</text>
<polyline fill="none" stroke="black" points="0,-325.5 140,-325.5 "/>
<text text-anchor="middle" x="70" y="-308.9" font-family="Times Roman,serif" font-size="14.00" fill="blue">remarks=varchar</text>
<polyline fill="none" stroke="black" points="0,-300.5 140,-300.5 "/>
<text text-anchor="middle" x="70" y="-283.9" font-family="Times Roman,serif" font-size="14.00" fill="blue">col1=int</text>
<polyline fill="none" stroke="black" points="0,-275.5 140,-275.5 "/>
<text text-anchor="middle" x="70" y="-258.9" font-family="Times Roman,serif" font-size="14.00" fill="blue">col2=int</text>
<polyline fill="none" stroke="black" points="0,-250.5 140,-250.5 "/>
<text text-anchor="middle" x="70" y="-233.9" font-family="Times Roman,serif" font-size="14.00" fill="blue">col3=int</text>
<polyline fill="none" stroke="black" points="0,-225.5 140,-225.5 "/>
<text text-anchor="middle" x="70" y="-208.9" font-family="Times Roman,serif" font-size="14.00" fill="blue">col4=int</text>
<polyline fill="none" stroke="black" points="0,-200.5 140,-200.5 "/>
<text text-anchor="middle" x="70" y="-183.9" font-family="Times Roman,serif" font-size="14.00" fill="blue">col5=int</text>
<polyline fill="none" stroke="black" points="0,-175.5 140,-175.5 "/>
<text text-anchor="middle" x="70" y="-158.9" font-family="Times Roman,serif" font-size="14.00" fill="blue">col6=int</text>
<polyline fill="none" stroke="black" points="0,-150.5 140,-150.5 "/>
<text text-anchor="middle" x="70" y="-133.9" font-family="Times Roman,serif" font-size="14.00" fill="blue">col7=int</text>
<polyline fill="none" stroke="black" points="0,-125.5 140,-125.5 "/>
<text text-anchor="middle" x="70" y="-108.9" font-family="Times Roman,serif" font-size="14.00" fill="blue">col8=int</text>
<polyline fill="none" stroke="black" points="0,-100.5 140,-100.5 "/>
<text text-anchor="middle" x="70" y="-83.9" font-family="Times Roman,serif" font-size="14.00" fill="blue">col9=int</text>
<polyline fill="none" stroke="black" points="0,-75.5 140,-75.5 "/>
<text text-anchor="middle" x="70" y="-58.9" font-family="Times Roman,serif" font-size="14.00" fill="blue">col10=int</text>
<polyline fill="none" stroke="black" points="0,-50.5 140,-50.5 "/>
<text text-anchor="middle" x="70" y="-33.9" font-family="Times Roman,serif" font-size="14.00" fill="blue">version=int</text>
<polyline fill="none" stroke="black" points="0,-25.5 140,-25.5 "/>
<text text-anchor="middle" x="70" y="-8.9" font-family="Times Roman,serif" font-size="14.00" fill="blue">active=int</text>
</g>
<!-- table3&#45;&gt;table2 -->
<g id="edge6" class="edge"><title>table3&#45;&gt;table2</title>
<path fill="none" stroke="black" stroke-dasharray="5,2" d="M80.046,-425.767C87.8763,-445.042 98.5732,-462.937 113,-478 140.312,-506.516 170.571,-469.674 200,-496 202.201,-497.969 204.348,-499.992 206.443,-502.067"/>
<polygon fill="black" stroke="black" points="203.927,-504.5 213.367,-509.31 208.988,-499.663 203.927,-504.5"/>
<text text-anchor="middle" x="198.5" y="-465.4" font-family="Times Roman,serif" font-size="14.00">first_index &#45;&gt; first_index</text>
<text text-anchor="middle" x="198.5" y="-448.4" font-family="Times Roman,serif" font-size="14.00">second_index &#45;&gt; &#39;index&#39;</text>
</g>
<!-- table3&#45;&gt;changelog -->
<g id="edge12" class="edge"><title>table3&#45;&gt;changelog</title>
<path fill="none" stroke="black" stroke-dasharray="5,2" d="M51.528,-425.543C40.8145,-594.931 34.4238,-837.733 63,-1048 65.005,-1062.75 68.2343,-1078.2 71.9562,-1093.08"/>
<polygon fill="black" stroke="black" points="68.569,-1093.96 74.4652,-1102.76 75.3452,-1092.2 68.569,-1093.96"/>
<text text-anchor="middle" x="134" y="-767.9" font-family="Times Roman,serif" font-size="14.00">version&#45;&gt;version ?!!</text>
</g>
<!-- table4 -->
<g id="node5" class="node"><title>table4</title>
<polygon fill="none" stroke="black" points="217,-25.5 217,-400.5 357,-400.5 357,-25.5 217,-25.5"/>
<text text-anchor="middle" x="287" y="-383.9" font-family="Times Roman,serif" font-size="14.00" fill="blue">table4</text>
<polyline fill="none" stroke="black" points="217,-375.5 357,-375.5 "/>
<text text-anchor="middle" x="287" y="-358.9" font-family="Times Roman,serif" font-size="14.00" fill="blue">first_index=int</text>
<polyline fill="none" stroke="black" points="217,-350.5 357,-350.5 "/>
<text text-anchor="middle" x="287" y="-333.9" font-family="Times Roman,serif" font-size="14.00" fill="blue">second_index=int</text>
<polyline fill="none" stroke="black" points="217,-325.5 357,-325.5 "/>
<text text-anchor="middle" x="287" y="-308.9" font-family="Times Roman,serif" font-size="14.00" fill="blue">col1=int</text>
<polyline fill="none" stroke="black" points="217,-300.5 357,-300.5 "/>
<text text-anchor="middle" x="287" y="-283.9" font-family="Times Roman,serif" font-size="14.00" fill="blue">col2=int</text>
<polyline fill="none" stroke="black" points="217,-275.5 357,-275.5 "/>
<text text-anchor="middle" x="287" y="-258.9" font-family="Times Roman,serif" font-size="14.00" fill="blue">col3=int</text>
<polyline fill="none" stroke="black" points="217,-250.5 357,-250.5 "/>
<text text-anchor="middle" x="287" y="-233.9" font-family="Times Roman,serif" font-size="14.00" fill="blue">col4=int</text>
<polyline fill="none" stroke="black" points="217,-225.5 357,-225.5 "/>
<text text-anchor="middle" x="287" y="-208.9" font-family="Times Roman,serif" font-size="14.00" fill="blue">col5=int</text>
<polyline fill="none" stroke="black" points="217,-200.5 357,-200.5 "/>
<text text-anchor="middle" x="287" y="-183.9" font-family="Times Roman,serif" font-size="14.00" fill="blue">col6=int</text>
<polyline fill="none" stroke="black" points="217,-175.5 357,-175.5 "/>
<text text-anchor="middle" x="287" y="-158.9" font-family="Times Roman,serif" font-size="14.00" fill="blue">col7=int</text>
<polyline fill="none" stroke="black" points="217,-150.5 357,-150.5 "/>
<text text-anchor="middle" x="287" y="-133.9" font-family="Times Roman,serif" font-size="14.00" fill="blue">col8=int</text>
<polyline fill="none" stroke="black" points="217,-125.5 357,-125.5 "/>
<text text-anchor="middle" x="287" y="-108.9" font-family="Times Roman,serif" font-size="14.00" fill="blue">col9=int</text>
<polyline fill="none" stroke="black" points="217,-100.5 357,-100.5 "/>
<text text-anchor="middle" x="287" y="-83.9" font-family="Times Roman,serif" font-size="14.00" fill="blue">col10=int</text>
<polyline fill="none" stroke="black" points="217,-75.5 357,-75.5 "/>
<text text-anchor="middle" x="287" y="-58.9" font-family="Times Roman,serif" font-size="14.00" fill="blue">col11=int</text>
<polyline fill="none" stroke="black" points="217,-50.5 357,-50.5 "/>
<text text-anchor="middle" x="287" y="-33.9" font-family="Times Roman,serif" font-size="14.00" fill="blue">col12=int</text>
</g>
<!-- table4&#45;&gt;table2 -->
<g id="edge2" class="edge"><title>table4&#45;&gt;table2</title>
<path fill="none" stroke="black" stroke-dasharray="5,2" d="M287.638,-400.838C287.747,-426.76 287.868,-453.041 288,-478 288.015,-480.931 288.031,-483.878 288.047,-486.84"/>
<polygon fill="black" stroke="black" points="284.548,-486.98 288.103,-496.961 291.548,-486.942 284.548,-486.98"/>
<text text-anchor="middle" x="373.5" y="-465.4" font-family="Times Roman,serif" font-size="14.00">first_index &#45;&gt; first_index</text>
<text text-anchor="middle" x="373.5" y="-448.4" font-family="Times Roman,serif" font-size="14.00">second_index &#45;&gt; &#39;index&#39;</text>
</g>
<!-- table5 -->
<g id="node6" class="node"><title>table5</title>
<polygon fill="none" stroke="black" points="411,-25.5 411,-400.5 551,-400.5 551,-25.5 411,-25.5"/>
<text text-anchor="middle" x="481" y="-383.9" font-family="Times Roman,serif" font-size="14.00" fill="blue">table5</text>
<polyline fill="none" stroke="black" points="411,-375.5 551,-375.5 "/>
<text text-anchor="middle" x="481" y="-358.9" font-family="Times Roman,serif" font-size="14.00" fill="blue">first_index=int</text>
<polyline fill="none" stroke="black" points="411,-350.5 551,-350.5 "/>
<text text-anchor="middle" x="481" y="-333.9" font-family="Times Roman,serif" font-size="14.00" fill="blue">second_index=int</text>
<polyline fill="none" stroke="black" points="411,-325.5 551,-325.5 "/>
<text text-anchor="middle" x="481" y="-308.9" font-family="Times Roman,serif" font-size="14.00" fill="blue">col1=int</text>
<polyline fill="none" stroke="black" points="411,-300.5 551,-300.5 "/>
<text text-anchor="middle" x="481" y="-283.9" font-family="Times Roman,serif" font-size="14.00" fill="blue">col2=int</text>
<polyline fill="none" stroke="black" points="411,-275.5 551,-275.5 "/>
<text text-anchor="middle" x="481" y="-258.9" font-family="Times Roman,serif" font-size="14.00" fill="blue">col3=int</text>
<polyline fill="none" stroke="black" points="411,-250.5 551,-250.5 "/>
<text text-anchor="middle" x="481" y="-233.9" font-family="Times Roman,serif" font-size="14.00" fill="blue">col4=int</text>
<polyline fill="none" stroke="black" points="411,-225.5 551,-225.5 "/>
<text text-anchor="middle" x="481" y="-208.9" font-family="Times Roman,serif" font-size="14.00" fill="blue">col5=int</text>
<polyline fill="none" stroke="black" points="411,-200.5 551,-200.5 "/>
<text text-anchor="middle" x="481" y="-183.9" font-family="Times Roman,serif" font-size="14.00" fill="blue">col6=int</text>
<polyline fill="none" stroke="black" points="411,-175.5 551,-175.5 "/>
<text text-anchor="middle" x="481" y="-158.9" font-family="Times Roman,serif" font-size="14.00" fill="blue">col7=int</text>
<polyline fill="none" stroke="black" points="411,-150.5 551,-150.5 "/>
<text text-anchor="middle" x="481" y="-133.9" font-family="Times Roman,serif" font-size="14.00" fill="blue">col8=int</text>
<polyline fill="none" stroke="black" points="411,-125.5 551,-125.5 "/>
<text text-anchor="middle" x="481" y="-108.9" font-family="Times Roman,serif" font-size="14.00" fill="blue">col9=int</text>
<polyline fill="none" stroke="black" points="411,-100.5 551,-100.5 "/>
<text text-anchor="middle" x="481" y="-83.9" font-family="Times Roman,serif" font-size="14.00" fill="blue">col10=int</text>
<polyline fill="none" stroke="black" points="411,-75.5 551,-75.5 "/>
<text text-anchor="middle" x="481" y="-58.9" font-family="Times Roman,serif" font-size="14.00" fill="blue">col11=int</text>
<polyline fill="none" stroke="black" points="411,-50.5 551,-50.5 "/>
<text text-anchor="middle" x="481" y="-33.9" font-family="Times Roman,serif" font-size="14.00" fill="blue">col12=int</text>
</g>
<!-- table5&#45;&gt;table2 -->
<g id="edge4" class="edge"><title>table5&#45;&gt;table2</title>
<path fill="none" stroke="black" stroke-dasharray="5,2" d="M475.739,-400.669C472.03,-426.993 466.662,-453.43 459,-478 439.452,-540.691 404.855,-604.565 372.035,-656.69"/>
<polygon fill="black" stroke="black" points="368.983,-654.967 366.573,-665.284 374.89,-658.722 368.983,-654.967"/>
<text text-anchor="middle" x="551.5" y="-465.4" font-family="Times Roman,serif" font-size="14.00">first_index &#45;&gt; first_index</text>
<text text-anchor="middle" x="551.5" y="-448.4" font-family="Times Roman,serif" font-size="14.00">second_index &#45;&gt; &#39;index&#39;</text>
</g>
</g>
</svg>
