<?xml version="1.0" encoding="UTF-8" standalone="no"?>
<!DOCTYPE svg PUBLIC "-//W3C//DTD SVG 1.1//EN"
 "http://www.w3.org/Graphics/SVG/1.1/DTD/svg11.dtd">
<!-- Generated by graphviz version 2.26.3 (20100126.1600)
 -->
<!-- Title: database Pages: 1 -->
<svg width="608pt" height="292pt"
 viewBox="0.00 0.00 608.00 292.00" xmlns="http://www.w3.org/2000/svg" xmlns:xlink="http://www.w3.org/1999/xlink">
<g id="graph1" class="graph" transform="scale(1 1) rotate(0) translate(4 288)">
<title>database</title>
<polygon fill="white" stroke="white" points="-4,5 -4,-288 605,-288 605,5 -4,5"/>
<g id="graph2" class="cluster"><title>cluster_entity1</title>
</g>
<g id="graph3" class="cluster"><title>cluster_entity2</title>
</g>
<g id="graph4" class="cluster"><title>cluster_entity3</title>
</g>
<!-- entity1 -->
<g id="node2" class="node"><title>entity1</title>
<polygon fill="none" stroke="black" points="279,-268 213,-268 213,-232 279,-232 279,-268"/>
<text text-anchor="middle" x="246" y="-245.9" font-family="Times Roman,serif" font-size="14.00">entity1</text>
</g>
<!-- lookup1a -->
<g id="node3" class="node"><title>lookup1a</title>
<polygon fill="none" stroke="black" points="94,-196 16,-196 16,-160 94,-160 94,-196"/>
<text text-anchor="middle" x="55" y="-173.9" font-family="Times Roman,serif" font-size="14.00">lookup1a</text>
</g>
<!-- entity1&#45;&gt;lookup1a -->
<g id="edge7" class="edge"><title>entity1&#45;&gt;lookup1a</title>
<path fill="none" stroke="black" d="M213,-241.267C183.604,-233.047 139.692,-219.679 103,-204 100.512,-202.937 97.9823,-201.788 95.4507,-200.585"/>
<polygon fill="black" stroke="black" points="96.8595,-197.376 86.3479,-196.051 93.7387,-203.642 96.8595,-197.376"/>
</g>
<!-- lookup1b -->
<g id="node4" class="node"><title>lookup1b</title>
<polygon fill="none" stroke="black" points="190,-196 112,-196 112,-160 190,-160 190,-196"/>
<text text-anchor="middle" x="151" y="-173.9" font-family="Times Roman,serif" font-size="14.00">lookup1b</text>
</g>
<!-- entity1&#45;&gt;lookup1b -->
<g id="edge9" class="edge"><title>entity1&#45;&gt;lookup1b</title>
<path fill="none" stroke="black" d="M222.027,-231.831C210.214,-222.878 195.803,-211.956 183.057,-202.295"/>
<polygon fill="black" stroke="black" points="185.049,-199.414 174.965,-196.163 180.82,-204.992 185.049,-199.414"/>
</g>
<!-- lookup1c -->
<g id="node5" class="node"><title>lookup1c</title>
<polygon fill="none" stroke="black" points="284,-196 208,-196 208,-160 284,-160 284,-196"/>
<text text-anchor="middle" x="246" y="-173.9" font-family="Times Roman,serif" font-size="14.00">lookup1c</text>
</g>
<!-- entity1&#45;&gt;lookup1c -->
<g id="edge11" class="edge"><title>entity1&#45;&gt;lookup1c</title>
<path fill="none" stroke="black" d="M246,-231.831C246,-224.131 246,-214.974 246,-206.417"/>
<polygon fill="black" stroke="black" points="249.5,-206.413 246,-196.413 242.5,-206.413 249.5,-206.413"/>
</g>
<!-- entity2 -->
<g id="node7" class="node"><title>entity2</title>
<polygon fill="none" stroke="black" points="483,-124 417,-124 417,-88 483,-88 483,-124"/>
<text text-anchor="middle" x="450" y="-101.9" font-family="Times Roman,serif" font-size="14.00">entity2</text>
</g>
<!-- entity1&#45;&gt;entity2 -->
<g id="edge19" class="edge"><title>entity1&#45;&gt;entity2</title>
<path fill="none" stroke="black" d="M279.34,-233.385C280.568,-232.899 281.79,-232.436 283,-232 332.49,-214.17 356.472,-236.29 398,-204 398.79,-203.386 420.474,-162.258 435.588,-133.484"/>
<polygon fill="black" stroke="black" points="438.873,-134.756 440.422,-124.275 432.675,-131.503 438.873,-134.756"/>
</g>
<!-- entity3 -->
<g id="node11" class="node"><title>entity3</title>
<polygon fill="none" stroke="black" points="380,-196 314,-196 314,-160 380,-160 380,-196"/>
<text text-anchor="middle" x="347" y="-173.9" font-family="Times Roman,serif" font-size="14.00">entity3</text>
</g>
<!-- entity1&#45;&gt;entity3 -->
<g id="edge21" class="edge"><title>entity1&#45;&gt;entity3</title>
<path fill="none" stroke="black" d="M271.487,-231.831C284.166,-222.793 299.66,-211.748 313.306,-202.02"/>
<polygon fill="black" stroke="black" points="315.41,-204.818 321.522,-196.163 311.347,-199.118 315.41,-204.818"/>
</g>
<!-- lookup2a -->
<g id="node8" class="node"><title>lookup2a</title>
<polygon fill="none" stroke="black" points="488,-52 410,-52 410,-16 488,-16 488,-52"/>
<text text-anchor="middle" x="449" y="-29.9" font-family="Times Roman,serif" font-size="14.00">lookup2a</text>
</g>
<!-- entity2&#45;&gt;lookup2a -->
<g id="edge13" class="edge"><title>entity2&#45;&gt;lookup2a</title>
<path fill="none" stroke="black" d="M449.748,-87.8314C449.641,-80.131 449.514,-70.9743 449.395,-62.4166"/>
<polygon fill="black" stroke="black" points="452.894,-62.3637 449.256,-52.4133 445.895,-62.4609 452.894,-62.3637"/>
</g>
<!-- lookup2b -->
<g id="node9" class="node"><title>lookup2b</title>
<polygon fill="none" stroke="black" points="584,-52 506,-52 506,-16 584,-16 584,-52"/>
<text text-anchor="middle" x="545" y="-29.9" font-family="Times Roman,serif" font-size="14.00">lookup2b</text>
</g>
<!-- entity2&#45;&gt;lookup2b -->
<g id="edge15" class="edge"><title>entity2&#45;&gt;lookup2b</title>
<path fill="none" stroke="black" d="M473.973,-87.8314C485.786,-78.8779 500.197,-67.9558 512.943,-58.2955"/>
<polygon fill="black" stroke="black" points="515.18,-60.9925 521.035,-52.1628 510.951,-55.4137 515.18,-60.9925"/>
</g>
<!-- lookup3a -->
<g id="node12" class="node"><title>lookup3a</title>
<polygon fill="none" stroke="black" points="386,-124 308,-124 308,-88 386,-88 386,-124"/>
<text text-anchor="middle" x="347" y="-101.9" font-family="Times Roman,serif" font-size="14.00">lookup3a</text>
</g>
<!-- entity3&#45;&gt;lookup3a -->
<g id="edge17" class="edge"><title>entity3&#45;&gt;lookup3a</title>
<path fill="none" stroke="black" d="M347,-159.831C347,-152.131 347,-142.974 347,-134.417"/>
<polygon fill="black" stroke="black" points="350.5,-134.413 347,-124.413 343.5,-134.413 350.5,-134.413"/>
</g>
<!-- link12 -->
<g id="node14" class="node"><title>link12</title>
<polygon fill="none" stroke="black" points="479,-268 421,-268 421,-232 479,-232 479,-268"/>
<text text-anchor="middle" x="450" y="-245.9" font-family="Times Roman,serif" font-size="14.00">link12</text>
</g>
<!-- link12&#45;&gt;entity1 -->
<g id="edge23" class="edge"><title>link12&#45;&gt;entity1</title>
<path fill="none" stroke="black" d="M420.955,-250C377.078,-250 333.201,-250 289.324,-250"/>
<polygon fill="black" stroke="black" points="289.07,-246.5 279.07,-250 289.07,-253.5 289.07,-246.5"/>
</g>
<!-- link12&#45;&gt;entity2 -->
<g id="edge25" class="edge"><title>link12&#45;&gt;entity2</title>
<path fill="none" stroke="black" d="M450,-231.762C450,-207.201 450,-163.247 450,-134.354"/>
<polygon fill="black" stroke="black" points="453.5,-134.09 450,-124.09 446.5,-134.09 453.5,-134.09"/>
</g>
<!-- link23 -->
<g id="node16" class="node"><title>link23</title>
<polygon fill="none" stroke="black" points="536,-196 478,-196 478,-160 536,-160 536,-196"/>
<text text-anchor="middle" x="507" y="-173.9" font-family="Times Roman,serif" font-size="14.00">link23</text>
</g>
<!-- link23&#45;&gt;entity2 -->
<g id="edge27" class="edge"><title>link23&#45;&gt;entity2</title>
<path fill="none" stroke="black" d="M492.616,-159.831C486.051,-151.539 478.149,-141.557 470.942,-132.453"/>
<polygon fill="black" stroke="black" points="473.528,-130.081 464.577,-124.413 468.04,-134.426 473.528,-130.081"/>
</g>
<!-- link23&#45;&gt;entity3 -->
<g id="edge29" class="edge"><title>link23&#45;&gt;entity3</title>
<path fill="none" stroke="black" d="M477.759,-178C448.647,-178 419.535,-178 390.422,-178"/>
<polygon fill="black" stroke="black" points="390.125,-174.5 380.125,-178 390.125,-181.5 390.125,-174.5"/>
</g>
</g>
</svg>
