<?xml version="1.0" encoding="UTF-8" standalone="no"?>
<!DOCTYPE svg PUBLIC "-//W3C//DTD SVG 1.1//EN"
 "http://www.w3.org/Graphics/SVG/1.1/DTD/svg11.dtd">
<!-- Generated by graphviz version 2.26.3 (20100126.1600)
 -->
<!-- Title: database Pages: 1 -->
<svg width="546pt" height="260pt"
 viewBox="0.00 0.00 546.00 260.00" xmlns="http://www.w3.org/2000/svg" xmlns:xlink="http://www.w3.org/1999/xlink">
<g id="graph1" class="graph" transform="scale(1 1) rotate(0) translate(4 256)">
<title>database</title>
<polygon fill="white" stroke="white" points="-4,5 -4,-256 543,-256 543,5 -4,5"/>
<!-- entity1 -->
<g id="node1" class="node"><title>entity1</title>
<polygon fill="none" stroke="black" points="270,-180 204,-180 204,-144 270,-144 270,-180"/>
<text text-anchor="middle" x="237" y="-157.9" font-family="Times Roman,serif" font-size="14.00">entity1</text>
</g>
<!-- entity2 -->
<g id="node2" class="node"><title>entity2</title>
<polygon fill="none" stroke="black" points="436,-108 370,-108 370,-72 436,-72 436,-108"/>
<text text-anchor="middle" x="403" y="-85.9" font-family="Times Roman,serif" font-size="14.00">entity2</text>
</g>
<!-- entity1&#45;&gt;entity2 -->
<g id="edge14" class="edge"><title>entity1&#45;&gt;entity2</title>
<path fill="none" stroke="black" d="M270.194,-147.603C296.205,-136.321 332.574,-120.546 360.677,-108.357"/>
<polygon fill="black" stroke="black" points="362.082,-111.562 369.864,-104.372 359.297,-105.141 362.082,-111.562"/>
</g>
<!-- entity3 -->
<g id="node3" class="node"><title>entity3</title>
<polygon fill="none" stroke="black" points="352,-108 286,-108 286,-72 352,-72 352,-108"/>
<text text-anchor="middle" x="319" y="-85.9" font-family="Times Roman,serif" font-size="14.00">entity3</text>
</g>
<!-- entity1&#45;&gt;entity3 -->
<g id="edge16" class="edge"><title>entity1&#45;&gt;entity3</title>
<path fill="none" stroke="black" d="M257.692,-143.831C267.695,-135.048 279.855,-124.371 290.7,-114.849"/>
<polygon fill="black" stroke="black" points="293.109,-117.391 298.315,-108.163 288.491,-112.131 293.109,-117.391"/>
</g>
<!-- lookup1a -->
<g id="node4" class="node"><title>lookup1a</title>
<polygon fill="none" stroke="black" points="172,-108 94,-108 94,-72 172,-72 172,-108"/>
<text text-anchor="middle" x="133" y="-85.9" font-family="Times Roman,serif" font-size="14.00">lookup1a</text>
</g>
<!-- entity1&#45;&gt;lookup1a -->
<g id="edge2" class="edge"><title>entity1&#45;&gt;lookup1a</title>
<path fill="none" stroke="black" d="M210.756,-143.831C197.701,-134.793 181.747,-123.748 167.695,-114.02"/>
<polygon fill="black" stroke="black" points="169.449,-110.977 159.235,-108.163 165.465,-116.733 169.449,-110.977"/>
</g>
<!-- lookup1b -->
<g id="node5" class="node"><title>lookup1b</title>
<polygon fill="none" stroke="black" points="268,-108 190,-108 190,-72 268,-72 268,-108"/>
<text text-anchor="middle" x="229" y="-85.9" font-family="Times Roman,serif" font-size="14.00">lookup1b</text>
</g>
<!-- entity1&#45;&gt;lookup1b -->
<g id="edge4" class="edge"><title>entity1&#45;&gt;lookup1b</title>
<path fill="none" stroke="black" d="M234.981,-143.831C234.126,-136.131 233.108,-126.974 232.157,-118.417"/>
<polygon fill="black" stroke="black" points="235.629,-117.966 231.046,-108.413 228.672,-118.739 235.629,-117.966"/>
</g>
<!-- lookup1c -->
<g id="node6" class="node"><title>lookup1c</title>
<polygon fill="none" stroke="black" points="76,-108 4.26326e-14,-108 0,-72 76,-72 76,-108"/>
<text text-anchor="middle" x="38" y="-85.9" font-family="Times Roman,serif" font-size="14.00">lookup1c</text>
</g>
<!-- entity1&#45;&gt;lookup1c -->
<g id="edge6" class="edge"><title>entity1&#45;&gt;lookup1c</title>
<path fill="none" stroke="black" d="M203.706,-150.434C174.843,-140.35 131.731,-125.148 85.7341,-108.234"/>
<polygon fill="black" stroke="black" points="86.7836,-104.891 76.1902,-104.715 84.3619,-111.459 86.7836,-104.891"/>
</g>
<!-- lookup2a -->
<g id="node7" class="node"><title>lookup2a</title>
<polygon fill="none" stroke="black" points="442,-36 364,-36 364,-1.77636e-14 442,-3.55271e-15 442,-36"/>
<text text-anchor="middle" x="403" y="-13.9" font-family="Times Roman,serif" font-size="14.00">lookup2a</text>
</g>
<!-- entity2&#45;&gt;lookup2a -->
<g id="edge8" class="edge"><title>entity2&#45;&gt;lookup2a</title>
<path fill="none" stroke="black" d="M403,-71.8314C403,-64.131 403,-54.9743 403,-46.4166"/>
<polygon fill="black" stroke="black" points="406.5,-46.4132 403,-36.4133 399.5,-46.4133 406.5,-46.4132"/>
</g>
<!-- lookup2b -->
<g id="node8" class="node"><title>lookup2b</title>
<polygon fill="none" stroke="black" points="538,-36 460,-36 460,-1.77636e-14 538,-3.55271e-15 538,-36"/>
<text text-anchor="middle" x="499" y="-13.9" font-family="Times Roman,serif" font-size="14.00">lookup2b</text>
</g>
<!-- entity2&#45;&gt;lookup2b -->
<g id="edge10" class="edge"><title>entity2&#45;&gt;lookup2b</title>
<path fill="none" stroke="black" d="M427.225,-71.8314C439.163,-62.8779 453.726,-51.9558 466.606,-42.2955"/>
<polygon fill="black" stroke="black" points="468.883,-44.9629 474.783,-36.1628 464.683,-39.3629 468.883,-44.9629"/>
</g>
<!-- lookup3a -->
<g id="node9" class="node"><title>lookup3a</title>
<polygon fill="none" stroke="black" points="346,-36 268,-36 268,-1.77636e-14 346,-3.55271e-15 346,-36"/>
<text text-anchor="middle" x="307" y="-13.9" font-family="Times Roman,serif" font-size="14.00">lookup3a</text>
</g>
<!-- entity3&#45;&gt;lookup3a -->
<g id="edge12" class="edge"><title>entity3&#45;&gt;lookup3a</title>
<path fill="none" stroke="black" d="M315.972,-71.8314C314.688,-64.131 313.162,-54.9743 311.736,-46.4166"/>
<polygon fill="black" stroke="black" points="315.165,-45.7018 310.069,-36.4133 308.261,-46.8526 315.165,-45.7018"/>
</g>
<!-- link12 -->
<g id="node18" class="node"><title>link12</title>
<polygon fill="none" stroke="black" points="345,-252 287,-252 287,-216 345,-216 345,-252"/>
<text text-anchor="middle" x="316" y="-229.9" font-family="Times Roman,serif" font-size="14.00">link12</text>
</g>
<!-- link12&#45;&gt;entity1 -->
<g id="edge18" class="edge"><title>link12&#45;&gt;entity1</title>
<path fill="none" stroke="black" d="M296.065,-215.831C286.522,-207.134 274.94,-196.578 264.569,-187.127"/>
<polygon fill="black" stroke="black" points="266.677,-184.312 256.929,-180.163 261.962,-189.486 266.677,-184.312"/>
</g>
<!-- link12&#45;&gt;entity2 -->
<g id="edge20" class="edge"><title>link12&#45;&gt;entity2</title>
<path fill="none" stroke="black" d="M334.922,-215.708C344.484,-205.771 355.771,-192.902 364,-180 376.517,-160.376 386.786,-136.05 393.639,-117.638"/>
<polygon fill="black" stroke="black" points="396.984,-118.679 397.087,-108.084 390.4,-116.302 396.984,-118.679"/>
</g>
<!-- link23 -->
<g id="node21" class="node"><title>link23</title>
<polygon fill="none" stroke="black" points="355,-180 297,-180 297,-144 355,-144 355,-180"/>
<text text-anchor="middle" x="326" y="-157.9" font-family="Times Roman,serif" font-size="14.00">link23</text>
</g>
<!-- link23&#45;&gt;entity2 -->
<g id="edge22" class="edge"><title>link23&#45;&gt;entity2</title>
<path fill="none" stroke="black" d="M345.43,-143.831C354.732,-135.134 366.02,-124.578 376.129,-115.127"/>
<polygon fill="black" stroke="black" points="378.662,-117.549 383.576,-108.163 373.881,-112.436 378.662,-117.549"/>
</g>
<!-- link23&#45;&gt;entity3 -->
<g id="edge24" class="edge"><title>link23&#45;&gt;entity3</title>
<path fill="none" stroke="black" d="M324.234,-143.831C323.485,-136.131 322.595,-126.974 321.763,-118.417"/>
<polygon fill="black" stroke="black" points="325.242,-118.028 320.79,-108.413 318.274,-118.705 325.242,-118.028"/>
</g>
</g>
</svg>
