<?xml version="1.0" encoding="UTF-8" standalone="no"?>
<!DOCTYPE svg PUBLIC "-//W3C//DTD SVG 1.1//EN"
 "http://www.w3.org/Graphics/SVG/1.1/DTD/svg11.dtd">
<!-- Generated by graphviz version 2.36.0 (20140111.2315)
 -->
<!-- Title: G Pages: 1 -->
<svg width="340pt" height="648pt"
 viewBox="0.00 0.00 340.34 648.00" xmlns="http://www.w3.org/2000/svg" xmlns:xlink="http://www.w3.org/1999/xlink">
<g id="graph0" class="graph" transform="scale(0.797048 0.797048) rotate(0) translate(4 809)">
<title>G</title>
<polygon fill="#eeeeff" stroke="none" points="-4,4 -4,-809 423,-809 423,4 -4,4"/>
<text text-anchor="middle" x="209.5" y="-7.4" font-family="Times New Roman,serif" font-size="12.00">1st Time Use/Phone Registration</text>
<!-- cell_number_entry -->
<g id="node1" class="node"><title>cell_number_entry</title>
<polygon fill="none" stroke="black" points="366,-477 280,-477 280,-441 366,-441 366,-477"/>
<text text-anchor="middle" x="323" y="-456.8" font-family="Times New Roman,serif" font-size="9.00">Cell Number Entry</text>
</g>
<!-- email_entry -->
<g id="node7" class="node"><title>email_entry</title>
<polygon fill="none" stroke="black" points="353,-369 293,-369 293,-333 353,-333 353,-369"/>
<text text-anchor="middle" x="323" y="-348.8" font-family="Times New Roman,serif" font-size="9.00">Email Entry</text>
</g>
<!-- cell_number_entry&#45;&gt;email_entry -->
<g id="edge9" class="edge"><title>cell_number_entry&#45;&gt;email_entry</title>
<path fill="none" stroke="blue" d="M323,-430.931C323,-415.187 323,-395.393 323,-379.566"/>
<polygon fill="blue" stroke="blue" points="319.5,-430.969 323,-440.969 326.5,-430.969 319.5,-430.969"/>
<polygon fill="blue" stroke="blue" points="326.5,-379.341 323,-369.341 319.5,-379.341 326.5,-379.341"/>
</g>
<!-- welcome -->
<g id="node2" class="node"><title>welcome</title>
<polygon fill="none" stroke="black" points="368,-805 300,-805 300,-769 368,-769 368,-805"/>
<text text-anchor="middle" x="334" y="-784.8" font-family="Times New Roman,serif" font-size="9.00">Welcome Page</text>
</g>
<!-- initial_screen -->
<g id="node3" class="node"><title>initial_screen</title>
<polygon fill="none" stroke="black" points="259.25,-723 196.75,-723 196.75,-687 259.25,-687 259.25,-723"/>
<text text-anchor="middle" x="228" y="-702.8" font-family="Times New Roman,serif" font-size="9.00">Initial Screen</text>
</g>
<!-- welcome&#45;&gt;initial_screen -->
<g id="edge1" class="edge"><title>welcome&#45;&gt;initial_screen</title>
<path fill="none" stroke="blue" d="M311.26,-768.838C296.03,-757.344 275.787,-742.066 259.074,-729.452"/>
<polygon fill="blue" stroke="blue" points="260.792,-726.364 250.702,-723.134 256.576,-731.951 260.792,-726.364"/>
<text text-anchor="middle" x="306.5" y="-744.1" font-family="Times New Roman,serif" font-size="8.00">First Time</text>
</g>
<!-- password_creation -->
<g id="node5" class="node"><title>password_creation</title>
<polygon fill="none" stroke="black" points="365.25,-559 280.75,-559 280.75,-523 365.25,-523 365.25,-559"/>
<text text-anchor="middle" x="323" y="-538.8" font-family="Times New Roman,serif" font-size="9.00">Password Creation</text>
</g>
<!-- welcome&#45;&gt;password_creation -->
<g id="edge6" class="edge"><title>welcome&#45;&gt;password_creation</title>
<path fill="none" stroke="blue" d="M341.192,-768.99C355.555,-732.373 384.175,-643.974 357,-577 355.579,-573.497 353.62,-570.152 351.354,-567.016"/>
<polygon fill="blue" stroke="blue" points="353.919,-564.628 344.797,-559.238 348.567,-569.14 353.919,-564.628"/>
</g>
<!-- member_name_creation -->
<g id="node4" class="node"><title>member_name_creation</title>
<polygon fill="none" stroke="black" points="280,-641 176,-641 176,-605 280,-605 280,-641"/>
<text text-anchor="middle" x="228" y="-620.8" font-family="Times New Roman,serif" font-size="9.00">Member Name Creation</text>
</g>
<!-- initial_screen&#45;&gt;member_name_creation -->
<g id="edge2" class="edge"><title>initial_screen&#45;&gt;member_name_creation</title>
<path fill="none" stroke="blue" d="M228,-686.641C228,-676.297 228,-662.941 228,-651.221"/>
<polygon fill="blue" stroke="blue" points="231.5,-651.05 228,-641.05 224.5,-651.05 231.5,-651.05"/>
<text text-anchor="middle" x="242" y="-662.1" font-family="Times New Roman,serif" font-size="8.00">Register</text>
</g>
<!-- member_name_entry -->
<g id="node12" class="node"><title>member_name_entry</title>
<polygon fill="none" stroke="black" points="134,-641 40,-641 40,-605 134,-605 134,-641"/>
<text text-anchor="middle" x="87" y="-620.8" font-family="Times New Roman,serif" font-size="9.00">Member Name Entry</text>
</g>
<!-- initial_screen&#45;&gt;member_name_entry -->
<g id="edge3" class="edge"><title>initial_screen&#45;&gt;member_name_entry</title>
<path fill="none" stroke="blue" d="M197.752,-686.838C176.75,-674.922 148.58,-658.939 125.907,-646.075"/>
<polygon fill="blue" stroke="blue" points="127.623,-643.024 117.198,-641.134 124.168,-649.113 127.623,-643.024"/>
<text text-anchor="middle" x="178.5" y="-662.1" font-family="Times New Roman,serif" font-size="8.00">Sign In</text>
</g>
<!-- member_name_creation&#45;&gt;password_creation -->
<g id="edge4" class="edge"><title>member_name_creation&#45;&gt;password_creation</title>
<path fill="none" stroke="blue" d="M256.534,-597.971C268.634,-587.782 282.699,-575.938 294.767,-565.776"/>
<polygon fill="blue" stroke="blue" points="254.008,-595.523 248.614,-604.641 258.517,-600.877 254.008,-595.523"/>
<polygon fill="blue" stroke="blue" points="297.358,-568.169 302.753,-559.05 292.849,-562.814 297.358,-568.169"/>
<text text-anchor="middle" x="317.5" y="-580.1" font-family="Times New Roman,serif" font-size="8.00">Valid Member Name</text>
</g>
<!-- member_name_unavailable -->
<g id="node6" class="node"><title>member_name_unavailable</title>
<polygon fill="none" stroke="black" points="232.25,-559 117.75,-559 117.75,-523 232.25,-523 232.25,-559"/>
<text text-anchor="middle" x="175" y="-538.8" font-family="Times New Roman,serif" font-size="9.00">Member Name Unavailable</text>
</g>
<!-- member_name_creation&#45;&gt;member_name_unavailable -->
<g id="edge5" class="edge"><title>member_name_creation&#45;&gt;member_name_unavailable</title>
<path fill="none" stroke="blue" d="M184.931,-598.513C181.414,-595.084 178.325,-591.252 176,-587 173.07,-581.641 171.836,-575.36 171.536,-569.219"/>
<polygon fill="blue" stroke="blue" points="182.737,-601.241 192.646,-604.992 187.239,-595.88 182.737,-601.241"/>
<polygon fill="blue" stroke="blue" points="175.035,-569.286 171.776,-559.205 168.037,-569.118 175.035,-569.286"/>
<text text-anchor="middle" x="215" y="-580.1" font-family="Times New Roman,serif" font-size="8.00">Invalid Member Name</text>
</g>
<!-- password_creation&#45;&gt;cell_number_entry -->
<g id="edge7" class="edge"><title>password_creation&#45;&gt;cell_number_entry</title>
<path fill="none" stroke="blue" d="M323,-512.428C323,-504.256 323,-495.316 323,-487.17"/>
<polygon fill="blue" stroke="blue" points="319.5,-512.641 323,-522.641 326.5,-512.641 319.5,-512.641"/>
<polygon fill="blue" stroke="blue" points="326.5,-487.05 323,-477.05 319.5,-487.05 326.5,-487.05"/>
</g>
<!-- zip_code_entry -->
<g id="node8" class="node"><title>zip_code_entry</title>
<polygon fill="none" stroke="black" points="360,-295 286,-295 286,-259 360,-259 360,-295"/>
<text text-anchor="middle" x="323" y="-274.8" font-family="Times New Roman,serif" font-size="9.00">Zip Code Entry</text>
</g>
<!-- email_entry&#45;&gt;zip_code_entry -->
<g id="edge12" class="edge"><title>email_entry&#45;&gt;zip_code_entry</title>
<path fill="none" stroke="blue" d="M323,-322.719C323,-317.145 323,-311.274 323,-305.686"/>
<polygon fill="blue" stroke="blue" points="319.5,-322.937 323,-332.937 326.5,-322.937 319.5,-322.937"/>
<polygon fill="blue" stroke="blue" points="326.5,-305.441 323,-295.441 319.5,-305.441 326.5,-305.441"/>
</g>
<!-- tos -->
<g id="node9" class="node"><title>tos</title>
<polygon fill="none" stroke="black" points="350,-221 296,-221 296,-185 350,-185 350,-221"/>
<text text-anchor="middle" x="323" y="-200.8" font-family="Times New Roman,serif" font-size="9.00">TOS</text>
</g>
<!-- zip_code_entry&#45;&gt;tos -->
<g id="edge13" class="edge"><title>zip_code_entry&#45;&gt;tos</title>
<path fill="none" stroke="blue" d="M323,-248.719C323,-243.145 323,-237.274 323,-231.686"/>
<polygon fill="blue" stroke="blue" points="319.5,-248.937 323,-258.937 326.5,-248.937 319.5,-248.937"/>
<polygon fill="blue" stroke="blue" points="326.5,-231.441 323,-221.441 319.5,-231.441 326.5,-231.441"/>
</g>
<!-- decline_confirmation -->
<g id="node10" class="node"><title>decline_confirmation</title>
<polygon fill="none" stroke="black" points="386,-139 292,-139 292,-103 386,-103 386,-139"/>
<text text-anchor="middle" x="339" y="-118.8" font-family="Times New Roman,serif" font-size="9.00">Decline Confirmation</text>
</g>
<!-- tos&#45;&gt;decline_confirmation -->
<g id="edge17" class="edge"><title>tos&#45;&gt;decline_confirmation</title>
<path fill="none" stroke="blue" d="M328.443,-174.787C330.107,-166.463 331.937,-157.313 333.6,-149.002"/>
<polygon fill="blue" stroke="blue" points="325.001,-174.149 326.472,-184.641 331.865,-175.522 325.001,-174.149"/>
<polygon fill="blue" stroke="blue" points="337.061,-149.542 335.59,-139.05 330.197,-148.169 337.061,-149.542"/>
<text text-anchor="middle" x="345.5" y="-160.1" font-family="Times New Roman,serif" font-size="8.00">Decline</text>
</g>
<!-- registration_confirmation -->
<g id="node11" class="node"><title>registration_confirmation</title>
<polygon fill="none" stroke="black" points="274,-139 164,-139 164,-103 274,-103 274,-139"/>
<text text-anchor="middle" x="219" y="-118.8" font-family="Times New Roman,serif" font-size="9.00">Registration Confirmation</text>
</g>
<!-- tos&#45;&gt;registration_confirmation -->
<g id="edge18" class="edge"><title>tos&#45;&gt;registration_confirmation</title>
<path fill="none" stroke="blue" d="M300.689,-184.838C285.747,-173.344 265.885,-158.066 249.488,-145.452"/>
<polygon fill="blue" stroke="blue" points="251.334,-142.457 241.274,-139.134 247.066,-148.005 251.334,-142.457"/>
<text text-anchor="middle" x="290.5" y="-160.1" font-family="Times New Roman,serif" font-size="8.00">Accept</text>
</g>
<!-- exit_application -->
<g id="node18" class="node"><title>exit_application</title>
<polygon fill="none" stroke="black" points="384,-57 294,-57 294,-21 384,-21 384,-57"/>
<text text-anchor="middle" x="339" y="-36.8" font-family="Times New Roman,serif" font-size="9.00">Exit the Application</text>
</g>
<!-- decline_confirmation&#45;&gt;exit_application -->
<g id="edge19" class="edge"><title>decline_confirmation&#45;&gt;exit_application</title>
<path fill="none" stroke="blue" d="M339,-102.641C339,-92.2971 339,-78.941 339,-67.2206"/>
<polygon fill="blue" stroke="blue" points="342.5,-67.0501 339,-57.0501 335.5,-67.0501 342.5,-67.0501"/>
<text text-anchor="middle" x="345.5" y="-78.1" font-family="Times New Roman,serif" font-size="8.00">Yes</text>
</g>
<!-- main_menu -->
<g id="node17" class="node"><title>main_menu</title>
<polygon fill="none" stroke="black" points="195,-57 135,-57 135,-21 195,-21 195,-57"/>
<text text-anchor="middle" x="165" y="-36.8" font-family="Times New Roman,serif" font-size="9.00">Main Menu</text>
</g>
<!-- registration_confirmation&#45;&gt;main_menu -->
<g id="edge20" class="edge"><title>registration_confirmation&#45;&gt;main_menu</title>
<path fill="none" stroke="blue" d="M207.283,-102.641C199.944,-91.7694 190.36,-77.5703 182.172,-65.44"/>
<polygon fill="blue" stroke="blue" points="185.005,-63.3804 176.509,-57.0501 179.203,-67.2968 185.005,-63.3804"/>
<text text-anchor="middle" x="220.5" y="-78.1" font-family="Times New Roman,serif" font-size="8.00">10 Sec/NEXT</text>
</g>
<!-- password_entry -->
<g id="node13" class="node"><title>password_entry</title>
<polygon fill="none" stroke="black" points="99.25,-559 24.75,-559 24.75,-523 99.25,-523 99.25,-559"/>
<text text-anchor="middle" x="62" y="-538.8" font-family="Times New Roman,serif" font-size="9.00">Password Entry</text>
</g>
<!-- member_name_entry&#45;&gt;password_entry -->
<g id="edge8" class="edge"><title>member_name_entry&#45;&gt;password_entry</title>
<path fill="none" stroke="blue" d="M78.4961,-594.787C75.8657,-586.37 72.9716,-577.109 70.3517,-568.725"/>
<polygon fill="blue" stroke="blue" points="75.2519,-596.14 81.5754,-604.641 81.9332,-594.052 75.2519,-596.14"/>
<polygon fill="blue" stroke="blue" points="73.6517,-567.551 67.3282,-559.05 66.9703,-569.639 73.6517,-567.551"/>
</g>
<!-- confirm_phone_number -->
<g id="node14" class="node"><title>confirm_phone_number</title>
<polygon fill="none" stroke="black" points="187.25,-423 84.75,-423 84.75,-387 187.25,-387 187.25,-423"/>
<text text-anchor="middle" x="136" y="-402.8" font-family="Times New Roman,serif" font-size="9.00">Confirm Phone Number</text>
</g>
<!-- password_entry&#45;&gt;confirm_phone_number -->
<g id="edge10" class="edge"><title>password_entry&#45;&gt;confirm_phone_number</title>
<path fill="none" stroke="blue" d="M103.49,-516.673C107.461,-513.166 111.086,-509.273 114,-505 128.445,-483.818 133.575,-454.702 135.314,-433.531"/>
<polygon fill="blue" stroke="blue" points="101.22,-514.006 95.5232,-522.939 105.547,-519.508 101.22,-514.006"/>
<polygon fill="blue" stroke="blue" points="138.824,-433.464 135.945,-423.268 131.837,-433.035 138.824,-433.464"/>
<text text-anchor="middle" x="148" y="-498.1" font-family="Times New Roman,serif" font-size="8.00">Auth. Successful</text>
</g>
<!-- unsuccessfull_sign_in -->
<g id="node15" class="node"><title>unsuccessfull_sign_in</title>
<polygon fill="none" stroke="black" points="94,-477 -7.10543e-015,-477 -7.10543e-015,-441 94,-441 94,-477"/>
<text text-anchor="middle" x="47" y="-456.8" font-family="Times New Roman,serif" font-size="9.00">Unsuccessfull Sign In</text>
</g>
<!-- password_entry&#45;&gt;unsuccessfull_sign_in -->
<g id="edge11" class="edge"><title>password_entry&#45;&gt;unsuccessfull_sign_in</title>
<path fill="none" stroke="blue" d="M53.7547,-522.933C51.4448,-517.347 49.2304,-511.028 48,-505 46.8473,-499.353 46.2758,-493.225 46.0463,-487.362"/>
<polygon fill="blue" stroke="blue" points="49.5452,-487.222 45.9507,-477.255 42.5455,-487.288 49.5452,-487.222"/>
<text text-anchor="middle" x="81" y="-498.1" font-family="Times New Roman,serif" font-size="8.00">Auth. Unsuccessful</text>
</g>
<!-- confirm_phone_number&#45;&gt;main_menu -->
<g id="edge14" class="edge"><title>confirm_phone_number&#45;&gt;main_menu</title>
<path fill="none" stroke="blue" d="M136,-386.938C136,-369.023 136,-340.031 136,-315 136,-315 136,-315 136,-120 136,-101.337 143.062,-81.6125 150.216,-66.4185"/>
<polygon fill="blue" stroke="blue" points="153.511,-67.6539 154.857,-57.1449 147.252,-64.521 153.511,-67.6539"/>
</g>
<!-- unsuccessfull_sign_in&#45;&gt;member_name_entry -->
<g id="edge15" class="edge"><title>unsuccessfull_sign_in&#45;&gt;member_name_entry</title>
<path fill="none" stroke="blue" d="M94.0241,-461.958C175.843,-466.459 339.029,-480.648 374,-523 393.549,-546.674 375.5,-573.349 348,-587 311.795,-604.973 206.941,-598.79 167,-605 159.586,-606.153 151.824,-607.554 144.173,-609.052"/>
<polygon fill="blue" stroke="blue" points="143.327,-605.652 134.219,-611.064 144.714,-612.513 143.327,-605.652"/>
<text text-anchor="middle" x="400.5" y="-539.1" font-family="Times New Roman,serif" font-size="8.00">Try Again</text>
</g>
<!-- email_confirmation -->
<g id="node16" class="node"><title>email_confirmation</title>
<polygon fill="none" stroke="black" points="90.25,-369 3.75,-369 3.75,-333 90.25,-333 90.25,-369"/>
<text text-anchor="middle" x="47" y="-348.8" font-family="Times New Roman,serif" font-size="9.00">Email Confirmation</text>
</g>
<!-- unsuccessfull_sign_in&#45;&gt;email_confirmation -->
<g id="edge16" class="edge"><title>unsuccessfull_sign_in&#45;&gt;email_confirmation</title>
<path fill="none" stroke="blue" d="M47,-440.969C47,-424.378 47,-398.883 47,-379.431"/>
<polygon fill="blue" stroke="blue" points="50.5001,-379.341 47,-369.341 43.5001,-379.341 50.5001,-379.341"/>
</g>
</g>
</svg>
