<?xml version="1.0" encoding="UTF-8" standalone="no"?>
<!DOCTYPE svg PUBLIC "-//W3C//DTD SVG 1.1//EN"
 "http://www.w3.org/Graphics/SVG/1.1/DTD/svg11.dtd">
<!-- Generated by graphviz version 2.26.3 (20100126.1600)
 -->
<!-- Title: G Pages: 1 -->
<svg width="395pt" height="648pt"
 viewBox="0.00 0.00 395.16 648.00" xmlns="http://www.w3.org/2000/svg" xmlns:xlink="http://www.w3.org/1999/xlink">
<g id="graph1" class="graph" transform="scale(0.795092 0.795092) rotate(0) translate(4 811)">
<title>G</title>
<polygon fill="#eeeeff" stroke="#eeeeff" points="-4,5 -4,-811 494,-811 494,5 -4,5"/>
<text text-anchor="middle" x="244.5" y="-8.2" font-family="Times Roman,serif" font-size="12.00">1st Time Use/Phone Registration</text>
<!-- cell_number_entry -->
<g id="node1" class="node"><title>cell_number_entry</title>
<polygon fill="none" stroke="black" points="134,-479 34,-479 34,-443 134,-443 134,-479"/>
<text text-anchor="middle" x="84" y="-458.4" font-family="Times Roman,serif" font-size="9.00">Cell Number Entry</text>
</g>
<!-- email_entry -->
<g id="node6" class="node"><title>email_entry</title>
<polygon fill="none" stroke="black" points="118,-371 50,-371 50,-335 118,-335 118,-371"/>
<text text-anchor="middle" x="84" y="-350.4" font-family="Times Roman,serif" font-size="9.00">Email Entry</text>
</g>
<!-- cell_number_entry&#45;&gt;email_entry -->
<g id="edge18" class="edge"><title>cell_number_entry&#45;&gt;email_entry</title>
<path fill="none" stroke="blue" d="M84,-432.54C84,-416.712 84,-397.081 84,-381.282"/>
<polygon fill="blue" stroke="blue" points="80.5001,-432.679 84,-442.679 87.5001,-432.679 80.5001,-432.679"/>
<polygon fill="blue" stroke="blue" points="87.5001,-381.05 84,-371.05 80.5001,-381.05 87.5001,-381.05"/>
</g>
<!-- welcome -->
<g id="node2" class="node"><title>welcome</title>
<polygon fill="none" stroke="black" points="161,-807 77,-807 77,-771 161,-771 161,-807"/>
<text text-anchor="middle" x="119" y="-786.4" font-family="Times Roman,serif" font-size="9.00">Welcome Page</text>
</g>
<!-- password_creation -->
<g id="node4" class="node"><title>password_creation</title>
<polygon fill="none" stroke="black" points="136,-561 32,-561 32,-525 136,-525 136,-561"/>
<text text-anchor="middle" x="84" y="-540.4" font-family="Times Roman,serif" font-size="9.00">Password Creation</text>
</g>
<!-- welcome&#45;&gt;password_creation -->
<g id="edge12" class="edge"><title>welcome&#45;&gt;password_creation</title>
<path fill="none" stroke="blue" d="M116.426,-770.911C110.384,-728.439 95.2525,-622.089 87.9995,-571.11"/>
<polygon fill="blue" stroke="blue" points="91.4512,-570.523 86.5774,-561.115 84.521,-571.509 91.4512,-570.523"/>
</g>
<!-- initial_screen -->
<g id="node17" class="node"><title>initial_screen</title>
<polygon fill="none" stroke="black" points="230,-725 154,-725 154,-689 230,-689 230,-725"/>
<text text-anchor="middle" x="192" y="-704.4" font-family="Times Roman,serif" font-size="9.00">Initial Screen</text>
</g>
<!-- welcome&#45;&gt;initial_screen -->
<g id="edge2" class="edge"><title>welcome&#45;&gt;initial_screen</title>
<path fill="none" stroke="blue" d="M135.201,-770.802C145.125,-759.654 157.984,-745.21 168.956,-732.885"/>
<polygon fill="blue" stroke="blue" points="171.809,-734.944 175.844,-725.148 166.581,-730.289 171.809,-734.944"/>
<text text-anchor="middle" x="180.5" y="-745.8" font-family="Times Roman,serif" font-size="8.00">First Time</text>
</g>
<!-- member_name_creation -->
<g id="node3" class="node"><title>member_name_creation</title>
<polygon fill="none" stroke="black" points="255,-643 129,-643 129,-607 255,-607 255,-643"/>
<text text-anchor="middle" x="192" y="-622.4" font-family="Times Roman,serif" font-size="9.00">Member Name Creation</text>
</g>
<!-- member_name_creation&#45;&gt;password_creation -->
<g id="edge8" class="edge"><title>member_name_creation&#45;&gt;password_creation</title>
<path fill="none" stroke="blue" d="M135.818,-601.95C129.155,-598.105 122.706,-593.786 117,-589 110.541,-583.581 104.705,-576.629 99.8001,-569.78"/>
<polygon fill="blue" stroke="blue" points="134.524,-605.229 144.986,-606.9 137.849,-599.069 134.524,-605.229"/>
<polygon fill="blue" stroke="blue" points="102.581,-567.642 94.1084,-561.282 96.7652,-571.538 102.581,-567.642"/>
<text text-anchor="middle" x="159.5" y="-581.8" font-family="Times Roman,serif" font-size="8.00">Valid Member Name</text>
</g>
<!-- member_name_unavailable -->
<g id="node5" class="node"><title>member_name_unavailable</title>
<polygon fill="none" stroke="black" points="295,-561 155,-561 155,-525 295,-525 295,-561"/>
<text text-anchor="middle" x="225" y="-540.4" font-family="Times Roman,serif" font-size="9.00">Member Name Unavailable</text>
</g>
<!-- member_name_creation&#45;&gt;member_name_unavailable -->
<g id="edge10" class="edge"><title>member_name_creation&#45;&gt;member_name_unavailable</title>
<path fill="none" stroke="blue" d="M203.154,-597.283C206.641,-588.62 210.485,-579.069 213.963,-570.425"/>
<polygon fill="blue" stroke="blue" points="199.81,-596.218 199.324,-606.802 206.304,-598.831 199.81,-596.218"/>
<polygon fill="blue" stroke="blue" points="217.21,-571.731 217.697,-561.148 210.716,-569.118 217.21,-571.731"/>
<text text-anchor="middle" x="256.5" y="-581.8" font-family="Times Roman,serif" font-size="8.00">Invalid Member Name</text>
</g>
<!-- password_creation&#45;&gt;cell_number_entry -->
<g id="edge14" class="edge"><title>password_creation&#45;&gt;cell_number_entry</title>
<path fill="none" stroke="blue" d="M84,-514.566C84,-506.396 84,-497.489 84,-489.326"/>
<polygon fill="blue" stroke="blue" points="80.5001,-514.802 84,-524.802 87.5001,-514.802 80.5001,-514.802"/>
<polygon fill="blue" stroke="blue" points="87.5001,-489.148 84,-479.148 80.5001,-489.148 87.5001,-489.148"/>
</g>
<!-- zip_code_entry -->
<g id="node7" class="node"><title>zip_code_entry</title>
<polygon fill="none" stroke="black" points="127,-297 41,-297 41,-261 127,-261 127,-297"/>
<text text-anchor="middle" x="84" y="-276.4" font-family="Times Roman,serif" font-size="9.00">Zip Code Entry</text>
</g>
<!-- email_entry&#45;&gt;zip_code_entry -->
<g id="edge24" class="edge"><title>email_entry&#45;&gt;zip_code_entry</title>
<path fill="none" stroke="blue" d="M84,-324.702C84,-319.053 84,-313.116 84,-307.46"/>
<polygon fill="blue" stroke="blue" points="80.5001,-324.708 84,-334.708 87.5001,-324.708 80.5001,-324.708"/>
<polygon fill="blue" stroke="blue" points="87.5001,-307.082 84,-297.082 80.5001,-307.082 87.5001,-307.082"/>
</g>
<!-- tos -->
<g id="node8" class="node"><title>tos</title>
<polygon fill="none" stroke="black" points="111,-223 57,-223 57,-187 111,-187 111,-223"/>
<text text-anchor="middle" x="84" y="-202.4" font-family="Times Roman,serif" font-size="9.00">TOS</text>
</g>
<!-- zip_code_entry&#45;&gt;tos -->
<g id="edge26" class="edge"><title>zip_code_entry&#45;&gt;tos</title>
<path fill="none" stroke="blue" d="M84,-250.702C84,-245.053 84,-239.116 84,-233.46"/>
<polygon fill="blue" stroke="blue" points="80.5001,-250.708 84,-260.708 87.5001,-250.708 80.5001,-250.708"/>
<polygon fill="blue" stroke="blue" points="87.5001,-233.082 84,-223.082 80.5001,-233.082 87.5001,-233.082"/>
</g>
<!-- decline_confirmation -->
<g id="node9" class="node"><title>decline_confirmation</title>
<polygon fill="none" stroke="black" points="112,-141 4.26326e-14,-141 0,-105 112,-105 112,-141"/>
<text text-anchor="middle" x="56" y="-120.4" font-family="Times Roman,serif" font-size="9.00">Decline Confirmation</text>
</g>
<!-- tos&#45;&gt;decline_confirmation -->
<g id="edge34" class="edge"><title>tos&#45;&gt;decline_confirmation</title>
<path fill="none" stroke="blue" d="M74.5357,-177.283C71.6092,-168.713 68.3862,-159.274 65.46,-150.704"/>
<polygon fill="blue" stroke="blue" points="71.2422,-178.469 77.7859,-186.802 77.8666,-176.207 71.2422,-178.469"/>
<polygon fill="blue" stroke="blue" points="68.7405,-149.48 62.1967,-141.148 62.116,-151.742 68.7405,-149.48"/>
<text text-anchor="middle" x="87.5" y="-161.8" font-family="Times Roman,serif" font-size="8.00">Decline</text>
</g>
<!-- registration_confirmation -->
<g id="node10" class="node"><title>registration_confirmation</title>
<polygon fill="none" stroke="black" points="264,-141 130,-141 130,-105 264,-105 264,-141"/>
<text text-anchor="middle" x="197" y="-120.4" font-family="Times Roman,serif" font-size="9.00">Registration Confirmation</text>
</g>
<!-- tos&#45;&gt;registration_confirmation -->
<g id="edge36" class="edge"><title>tos&#45;&gt;registration_confirmation</title>
<path fill="none" stroke="blue" d="M109.078,-186.802C125.171,-175.124 146.25,-159.827 163.735,-147.139"/>
<polygon fill="blue" stroke="blue" points="165.954,-149.854 171.992,-141.148 161.843,-144.188 165.954,-149.854"/>
<text text-anchor="middle" x="161" y="-161.8" font-family="Times Roman,serif" font-size="8.00">Accept</text>
</g>
<!-- exit_application -->
<g id="node18" class="node"><title>exit_application</title>
<polygon fill="none" stroke="black" points="109,-59 3,-59 3,-23 109,-23 109,-59"/>
<text text-anchor="middle" x="56" y="-38.4" font-family="Times Roman,serif" font-size="9.00">Exit the Application</text>
</g>
<!-- decline_confirmation&#45;&gt;exit_application -->
<g id="edge38" class="edge"><title>decline_confirmation&#45;&gt;exit_application</title>
<path fill="none" stroke="blue" d="M56,-104.802C56,-94.3976 56,-81.1215 56,-69.3768"/>
<polygon fill="blue" stroke="blue" points="59.5001,-69.1476 56,-59.1476 52.5001,-69.1476 59.5001,-69.1476"/>
<text text-anchor="middle" x="64" y="-79.8" font-family="Times Roman,serif" font-size="8.00">Yes</text>
</g>
<!-- main_menu -->
<g id="node16" class="node"><title>main_menu</title>
<polygon fill="none" stroke="black" points="289,-59 223,-59 223,-23 289,-23 289,-59"/>
<text text-anchor="middle" x="256" y="-38.4" font-family="Times Roman,serif" font-size="9.00">Main Menu</text>
</g>
<!-- registration_confirmation&#45;&gt;main_menu -->
<g id="edge40" class="edge"><title>registration_confirmation&#45;&gt;main_menu</title>
<path fill="none" stroke="blue" d="M205.975,-104.945C210.617,-96.2157 216.638,-85.7582 223,-77 225.466,-73.6044 228.213,-70.1759 231.039,-66.8543"/>
<polygon fill="blue" stroke="blue" points="233.666,-69.1673 237.683,-59.3635 228.429,-64.5225 233.666,-69.1673"/>
<text text-anchor="middle" x="250.5" y="-79.8" font-family="Times Roman,serif" font-size="8.00">10 Sec/NEXT</text>
</g>
<!-- member_name_entry -->
<g id="node11" class="node"><title>member_name_entry</title>
<polygon fill="none" stroke="black" points="391,-643 281,-643 281,-607 391,-607 391,-643"/>
<text text-anchor="middle" x="336" y="-622.4" font-family="Times Roman,serif" font-size="9.00">Member Name Entry</text>
</g>
<!-- password_entry -->
<g id="node12" class="node"><title>password_entry</title>
<polygon fill="none" stroke="black" points="401,-561 313,-561 313,-525 401,-525 401,-561"/>
<text text-anchor="middle" x="357" y="-540.4" font-family="Times Roman,serif" font-size="9.00">Password Entry</text>
</g>
<!-- member_name_entry&#45;&gt;password_entry -->
<g id="edge16" class="edge"><title>member_name_entry&#45;&gt;password_entry</title>
<path fill="none" stroke="blue" d="M343.19,-596.925C345.345,-588.509 347.708,-579.284 349.86,-570.881"/>
<polygon fill="blue" stroke="blue" points="339.751,-596.246 340.661,-606.802 346.532,-597.983 339.751,-596.246"/>
<polygon fill="blue" stroke="blue" points="353.262,-571.703 352.352,-561.148 346.481,-569.967 353.262,-571.703"/>
</g>
<!-- confirm_phone_number -->
<g id="node13" class="node"><title>confirm_phone_number</title>
<polygon fill="none" stroke="black" points="354,-425 230,-425 230,-389 354,-389 354,-425"/>
<text text-anchor="middle" x="292" y="-404.4" font-family="Times Roman,serif" font-size="9.00">Confirm Phone Number</text>
</g>
<!-- password_entry&#45;&gt;confirm_phone_number -->
<g id="edge20" class="edge"><title>password_entry&#45;&gt;confirm_phone_number</title>
<path fill="none" stroke="blue" d="M304.694,-519.568C300.506,-515.909 296.814,-511.739 294,-507 281.183,-485.414 282.205,-456.315 285.522,-435.074"/>
<polygon fill="blue" stroke="blue" points="302.598,-522.371 312.685,-525.611 306.82,-516.787 302.598,-522.371"/>
<polygon fill="blue" stroke="blue" points="288.999,-435.52 287.345,-425.055 282.112,-434.267 288.999,-435.52"/>
<text text-anchor="middle" x="330" y="-499.8" font-family="Times Roman,serif" font-size="8.00">Auth. Successful</text>
</g>
<!-- unsuccessfull_sign_in -->
<g id="node14" class="node"><title>unsuccessfull_sign_in</title>
<polygon fill="none" stroke="black" points="445,-479 329,-479 329,-443 445,-443 445,-479"/>
<text text-anchor="middle" x="387" y="-458.4" font-family="Times Roman,serif" font-size="9.00">Unsuccessfull Sign In</text>
</g>
<!-- password_entry&#45;&gt;unsuccessfull_sign_in -->
<g id="edge22" class="edge"><title>password_entry&#45;&gt;unsuccessfull_sign_in</title>
<path fill="none" stroke="blue" d="M363.658,-524.802C367.542,-514.185 372.52,-500.578 376.881,-488.66"/>
<polygon fill="blue" stroke="blue" points="380.212,-489.741 380.361,-479.148 373.638,-487.336 380.212,-489.741"/>
<text text-anchor="middle" x="414" y="-499.8" font-family="Times Roman,serif" font-size="8.00">Auth. Unsuccessful</text>
</g>
<!-- confirm_phone_number&#45;&gt;main_menu -->
<g id="edge28" class="edge"><title>confirm_phone_number&#45;&gt;main_menu</title>
<path fill="none" stroke="blue" d="M292,-388.871C292,-370.505 292,-341.278 292,-316 292,-316 292,-316 292,-123 292,-103.558 283.41,-83.5446 274.623,-68.1567"/>
<polygon fill="blue" stroke="blue" points="277.38,-65.9537 269.201,-59.2197 271.395,-69.5847 277.38,-65.9537"/>
</g>
<!-- unsuccessfull_sign_in&#45;&gt;member_name_entry -->
<g id="edge30" class="edge"><title>unsuccessfull_sign_in&#45;&gt;member_name_entry</title>
<path fill="none" stroke="blue" d="M445.014,-478.464C456.501,-485.372 463.755,-494.684 459,-507 443.334,-547.578 405.107,-580.46 375.392,-601.107"/>
<polygon fill="blue" stroke="blue" points="373.201,-598.363 366.871,-606.859 377.118,-604.165 373.201,-598.363"/>
<text text-anchor="middle" x="469.5" y="-540.8" font-family="Times Roman,serif" font-size="8.00">Try Again</text>
</g>
<!-- email_confirmation -->
<g id="node15" class="node"><title>email_confirmation</title>
<polygon fill="none" stroke="black" points="439,-371 335,-371 335,-335 439,-335 439,-371"/>
<text text-anchor="middle" x="387" y="-350.4" font-family="Times Roman,serif" font-size="9.00">Email Confirmation</text>
</g>
<!-- unsuccessfull_sign_in&#45;&gt;email_confirmation -->
<g id="edge32" class="edge"><title>unsuccessfull_sign_in&#45;&gt;email_confirmation</title>
<path fill="none" stroke="blue" d="M387,-442.679C387,-425.821 387,-400.565 387,-381.147"/>
<polygon fill="blue" stroke="blue" points="390.5,-381.05 387,-371.05 383.5,-381.05 390.5,-381.05"/>
</g>
<!-- initial_screen&#45;&gt;member_name_creation -->
<g id="edge4" class="edge"><title>initial_screen&#45;&gt;member_name_creation</title>
<path fill="none" stroke="blue" d="M192,-688.802C192,-678.398 192,-665.122 192,-653.377"/>
<polygon fill="blue" stroke="blue" points="195.5,-653.148 192,-643.148 188.5,-653.148 195.5,-653.148"/>
<text text-anchor="middle" x="210" y="-663.8" font-family="Times Roman,serif" font-size="8.00">Register</text>
</g>
<!-- initial_screen&#45;&gt;member_name_entry -->
<g id="edge6" class="edge"><title>initial_screen&#45;&gt;member_name_entry</title>
<path fill="none" stroke="blue" d="M223.958,-688.802C245.025,-676.805 272.798,-660.99 295.422,-648.107"/>
<polygon fill="blue" stroke="blue" points="297.173,-651.137 304.131,-643.148 293.709,-645.055 297.173,-651.137"/>
<text text-anchor="middle" x="287" y="-663.8" font-family="Times Roman,serif" font-size="8.00">Sign In</text>
</g>
</g>
</svg>
